{
 "cells": [
  {
   "cell_type": "code",
   "execution_count": 12,
   "id": "cd8e5f48",
   "metadata": {},
   "outputs": [
    {
     "name": "stdout",
     "output_type": "stream",
     "text": [
      "FFMPEG_BIN = D:\\projects\\mp3tom4b_audiobook\\ffmpeg-2025-12-10-git-4f947880bd-essentials_build\\bin\\ffmpeg.exe\n",
      "FFPROBE_BIN = D:\\projects\\mp3tom4b_audiobook\\ffmpeg-2025-12-10-git-4f947880bd-essentials_build\\bin\\ffprobe.exe\n",
      "MP3_FOLDER = D:\\Downloads\\Harry Potter - Oh God Not Again! FanFiction Patronus Pages AudioBook\n"
     ]
    }
   ],
   "source": [
    "import os, json, subprocess, re, warnings\n",
    "from pathlib import Path\n",
    "\n",
    "warnings.filterwarnings(\"ignore\")\n",
    "\n",
    "# Adjust if notebook is elsewhere, but this matches your current layout\n",
    "FFMPEG_DIR = Path(\"./\") / \"ffmpeg-2025-12-10-git-4f947880bd-essentials_build\" / \"bin\"\n",
    "FFMPEG_BIN = str((FFMPEG_DIR / \"ffmpeg.exe\").resolve())\n",
    "FFPROBE_BIN = str((FFMPEG_DIR / \"ffprobe.exe\").resolve())\n",
    "\n",
    "print(\"FFMPEG_BIN =\", FFMPEG_BIN)\n",
    "print(\"FFPROBE_BIN =\", FFPROBE_BIN)\n",
    "\n",
    "# Folder with your 50 MP3s\n",
    "MP3_FOLDER = Path(r\"D:/Downloads/Harry Potter - Oh God Not Again! FanFiction Patronus Pages AudioBook\").resolve()\n",
    "print(\"MP3_FOLDER =\", MP3_FOLDER)\n",
    "\n",
    "# Final output name (base)\n",
    "DEFAULT_OUTPUT_NAME = \"Oh_God_Not_Again_Harry_Potter_FanFic.m4b\"\n",
    "\n",
    "METADATA = {\n",
    "    \"title\": \"Oh God Not Again! Harry Potter FanFic\",\n",
    "    \"artist\": \"Sarah1281\",\n",
    "    \"author\": \"Sarah1281\",\n",
    "    \"album\": \"Oh God Not Again! Harry Potter FanFic Audiobook\",\n",
    "    \"album_artist\": \"Patronus Pages\",\n",
    "    \"genre\": \"Audiobook\",\n",
    "    \"date\": \"2008\",\n",
    "    \"comment\": (\n",
    "        \"Patronus Pages YT audiobook: \"\n",
    "        \"https://www.youtube.com/playlist?list=PLba8WLPdVZSrCgji3KUyDuHpYI3mVruZD \"\n",
    "        \"based on Harry Potter FanFic: \"\n",
    "        \"https://www.fanfiction.net/s/4536005/2/Oh-God-Not-Again\"\n",
    "    ),\n",
    "}\n",
    "\n",
    "def get_duration(file_path: Path) -> float:\n",
    "    \"\"\"Get audio duration in seconds using ffprobe.\"\"\"\n",
    "    cmd = [\n",
    "        FFPROBE_BIN, \"-v\", \"quiet\", \"-print_format\", \"json\",\n",
    "        \"-show_format\", str(file_path)\n",
    "    ]\n",
    "    result = subprocess.run(cmd, capture_output=True, text=True, check=True)\n",
    "    data = json.loads(result.stdout)\n",
    "    return float(data[\"format\"][\"duration\"])\n",
    "\n",
    "def parse_chapter_number(filename: str) -> int:\n",
    "    \"\"\"Extract chapter number from 'Chapter X' pattern in filename.\"\"\"\n",
    "    match = re.search(r\"Chapter\\s+(\\d+)\", filename, re.IGNORECASE)\n",
    "    return int(match.group(1)) if match else float(\"inf\")\n"
   ]
  },
  {
   "cell_type": "code",
   "execution_count": null,
   "id": "7f79d47a",
   "metadata": {},
   "outputs": [
    {
     "name": "stdout",
     "output_type": "stream",
     "text": [
      "Using MP3 folder: D:\\Downloads\\Harry Potter - Oh God Not Again! FanFiction Patronus Pages AudioBook\n",
      "Found 50 MP3 files (sorted by chapter):\n",
      "  01. Chapter 1 -> Harry Potter - Oh God Not Again!  Chapter 1 _ FanFiction AudioBook.mp3\n",
      "  02. Chapter 2 -> Harry Potter - Oh God Not Again!  Chapter 2 _ FanFiction AudioBook.mp3\n",
      "  03. Chapter 3 -> Harry Potter - Oh God Not Again!  Chapter 3 _ FanFiction AudioBook.mp3\n",
      "  04. Chapter 4 -> Harry Potter - Oh God Not Again!  Chapter 4 _ FanFiction AudioBook.mp3\n",
      "  05. Chapter 5 -> Harry Potter - Oh God Not Again!  Chapter 5 _ FanFiction AudioBook.mp3\n",
      "  06. Chapter 6 -> Harry Potter - Oh God Not Again!  Chapter 6 _ FanFiction AudioBook.mp3\n",
      "  07. Chapter 7 -> Harry Potter - Oh God Not Again!  Chapter 7 _ FanFiction AudioBook.mp3\n",
      "  08. Chapter 8 -> Harry Potter - Oh God Not Again!  Chapter 8 _ FanFiction AudioBook.mp3\n",
      "  09. Chapter 9 -> Harry Potter - Oh God Not Again!  Chapter 9 _ FanFiction AudioBook.mp3\n",
      "  10. Chapter 10 -> Harry Potter - Oh God Not Again!  Chapter 10 _ FanFiction AudioBook.mp3\n",
      "  11. Chapter 11 -> Harry Potter - Oh God Not Again!  Chapter 11 _ FanFiction AudioBook.mp3\n",
      "  12. Chapter 12 -> Harry Potter - Oh God Not Again!  Chapter 12 _ FanFiction AudioBook.mp3\n",
      "  13. Chapter 13 -> Harry Potter - Oh God Not Again!  Chapter 13 _ FanFiction AudioBook.mp3\n",
      "  14. Chapter 14 -> Harry Potter - Oh God Not Again!  Chapter 14 _ FanFiction AudioBook.mp3\n",
      "  15. Chapter 15 -> Harry Potter - Oh God Not Again!  Chapter 15 _ FanFiction AudioBook.mp3\n",
      "  16. Chapter 16 -> Harry Potter - Oh God Not Again!  Chapter 16 _ FanFiction AudioBook.mp3\n",
      "  17. Chapter 17 -> Harry Potter - Oh God Not Again!  Chapter 17 _ FanFiction AudioBook.mp3\n",
      "  18. Chapter 18 -> Harry Potter - Oh God Not Again!  Chapter 18 _ FanFiction AudioBook.mp3\n",
      "  19. Chapter 19 -> Harry Potter - Oh God Not Again!  Chapter 19 _ FanFiction AudioBook.mp3\n",
      "  20. Chapter 20 -> Harry Potter - Oh God Not Again!  Chapter 20 _ FanFiction AudioBook.mp3\n",
      "  21. Chapter 21 -> Harry Potter - Oh God Not Again!  Chapter 21 _ FanFiction AudioBook.mp3\n",
      "  22. Chapter 22 -> Harry Potter - Oh God Not Again!  Chapter 22 _ FanFiction AudioBook.mp3\n",
      "  23. Chapter 23 -> Harry Potter - Oh God Not Again!  Chapter 23 _ FanFiction AudioBook.mp3\n",
      "  24. Chapter 24 -> Harry Potter - Oh God Not Again!  Chapter 24 _ FanFiction AudioBook.mp3\n",
      "  25. Chapter 25 -> Harry Potter - Oh God Not Again!  Chapter 25 _ FanFiction AudioBook.mp3\n",
      "  26. Chapter 26 -> Harry Potter - Oh God Not Again!  Chapter 26 _ FanFiction AudioBook.mp3\n",
      "  27. Chapter 27 -> Harry Potter - Oh God Not Again!  Chapter 27 _ FanFiction AudioBook.mp3\n",
      "  28. Chapter 28 -> Harry Potter - Oh God Not Again!  Chapter 28 _ FanFiction AudioBook.mp3\n",
      "  29. Chapter 29 -> Harry Potter - Oh God Not Again!  Chapter 29 _ FanFiction AudioBook.mp3\n",
      "  30. Chapter 30 -> Harry Potter - Oh God Not Again!  Chapter 30 _ FanFiction AudioBook.mp3\n",
      "  31. Chapter 31 -> Harry Potter - Oh God Not Again!  Chapter 31 _ FanFiction AudioBook.mp3\n",
      "  32. Chapter 32 -> Harry Potter - Oh God Not Again!  Chapter 32 _ FanFiction AudioBook.mp3\n",
      "  33. Chapter 33 -> Harry Potter - Oh God Not Again!  Chapter 33 _ FanFiction AudioBook.mp3\n",
      "  34. Chapter 34 -> Harry Potter - Oh God Not Again!  Chapter 34 _ FanFiction AudioBook.mp3\n",
      "  35. Chapter 35 -> Harry Potter - Oh God Not Again!  Chapter 35 _ FanFiction AudioBook.mp3\n",
      "  36. Chapter 36 -> Harry Potter - Oh God Not Again!  Chapter 36 _ FanFiction AudioBook.mp3\n",
      "  37. Chapter 37 -> Harry Potter - Oh God Not Again!  Chapter 37 _ FanFiction AudioBook.mp3\n",
      "  38. Chapter 38 -> Harry Potter - Oh God Not Again!  Chapter 38 _ FanFiction AudioBook.mp3\n",
      "  39. Chapter 39 -> Harry Potter - Oh God Not Again!  Chapter 39 _ FanFiction AudioBook.mp3\n",
      "  40. Chapter 40 -> Harry Potter - Oh God Not Again!  Chapter 40 _ FanFiction AudioBook.mp3\n",
      "  41. Chapter 41 -> Harry Potter - Oh God Not Again!  Chapter 41 _ FanFiction AudioBook.mp3\n",
      "  42. Chapter 42 -> Harry Potter - Oh God Not Again!  Chapter 42 _ FanFiction AudioBook.mp3\n",
      "  43. Chapter 43 -> Harry Potter - Oh God Not Again!  Chapter 43 _ FanFiction AudioBook.mp3\n",
      "  44. Chapter 44 -> Harry Potter - Oh God Not Again!  Chapter 44 _ FanFiction AudioBook.mp3\n",
      "  45. Chapter 45 -> Harry Potter - Oh God Not Again!  Chapter 45 _ FanFiction AudioBook.mp3\n",
      "  46. Chapter 46 -> Harry Potter - Oh God Not Again!  Chapter 46 _ FanFiction AudioBook.mp3\n",
      "  47. Chapter 47 -> Harry Potter - Oh God Not Again!  Chapter 47 _ FanFiction AudioBook.mp3\n",
      "  48. Chapter 48 -> Harry Potter - Oh God Not Again!  Chapter 48 _ FanFiction AudioBook.mp3\n",
      "  49. Chapter 49 -> Harry Potter - Oh God Not Again!  Chapter 49 _ FanFiction AudioBook.mp3\n",
      "  50. Chapter 50 -> Harry Potter - Oh God Not Again!  Chapter 50 _ FanFiction AudioBook.mp3\n",
      "Wrote concat list to: concat.txt\n",
      "  -> Chapter 1: 21.0 min\n",
      "  -> Chapter 2: 24.0 min\n",
      "  -> Chapter 3: 20.6 min\n",
      "  -> Chapter 4: 18.7 min\n",
      "  -> Chapter 5: 19.5 min\n",
      "  -> Chapter 6: 17.7 min\n",
      "  -> Chapter 7: 16.4 min\n",
      "  -> Chapter 8: 18.2 min\n",
      "  -> Chapter 9: 20.4 min\n",
      "  -> Chapter 10: 24.1 min\n",
      "  -> Chapter 11: 16.7 min\n",
      "  -> Chapter 12: 17.6 min\n",
      "  -> Chapter 13: 17.2 min\n",
      "  -> Chapter 14: 18.3 min\n",
      "  -> Chapter 15: 19.5 min\n",
      "  -> Chapter 16: 15.8 min\n",
      "  -> Chapter 17: 19.6 min\n",
      "  -> Chapter 18: 18.4 min\n",
      "  -> Chapter 19: 19.4 min\n",
      "  -> Chapter 20: 18.1 min\n",
      "  -> Chapter 21: 18.1 min\n",
      "  -> Chapter 22: 18.9 min\n",
      "  -> Chapter 23: 19.0 min\n",
      "  -> Chapter 24: 18.6 min\n",
      "  -> Chapter 25: 24.8 min\n",
      "  -> Chapter 26: 19.5 min\n",
      "  -> Chapter 27: 16.5 min\n",
      "  -> Chapter 28: 21.3 min\n",
      "  -> Chapter 29: 22.6 min\n",
      "  -> Chapter 30: 19.5 min\n",
      "  -> Chapter 31: 13.9 min\n",
      "  -> Chapter 32: 17.7 min\n",
      "  -> Chapter 33: 15.7 min\n",
      "  -> Chapter 34: 17.9 min\n",
      "  -> Chapter 35: 22.5 min\n",
      "  -> Chapter 36: 18.1 min\n",
      "  -> Chapter 37: 16.4 min\n",
      "  -> Chapter 38: 17.2 min\n",
      "  -> Chapter 39: 19.5 min\n",
      "  -> Chapter 40: 15.3 min\n",
      "  -> Chapter 41: 18.2 min\n",
      "  -> Chapter 42: 17.9 min\n",
      "  -> Chapter 43: 13.3 min\n",
      "  -> Chapter 44: 19.4 min\n",
      "  -> Chapter 45: 18.1 min\n",
      "  -> Chapter 46: 15.9 min\n",
      "  -> Chapter 47: 20.8 min\n",
      "  -> Chapter 48: 24.0 min\n",
      "  -> Chapter 49: 20.7 min\n",
      "  -> Chapter 50: 19.4 min\n",
      "Wrote chapter metadata to: chapters.ffmetadata\n",
      "\n",
      "[Step 1] Concatenating MP3 files into AAC M4A (80 kb/s mono)...\n",
      "Running: D:\\projects\\mp3tom4b_audiobook\\ffmpeg-2025-12-10-git-4f947880bd-essentials_build\\bin\\ffmpeg.exe -y -f concat -safe 0 -i concat.txt -ac 1 -c:a aac -b:a 80k temp_combined.m4a\n"
     ]
    }
   ],
   "source": [
    "#Recode mp3 and create intermediate files\n",
    "\n",
    "folder = MP3_FOLDER\n",
    "print(\"Using MP3 folder:\", folder)\n",
    "\n",
    "mp3_files = list(folder.glob(\"*.mp3\"))\n",
    "if not mp3_files:\n",
    "    raise SystemExit(\"No MP3 files found in folder\")\n",
    "\n",
    "# Sort by chapter number in filename\n",
    "mp3_files.sort(key=lambda f: parse_chapter_number(f.name))\n",
    "\n",
    "print(f\"Found {len(mp3_files)} MP3 files (sorted by chapter):\")\n",
    "for i, mp3 in enumerate(mp3_files, 1):\n",
    "    chap_num = parse_chapter_number(mp3.name)\n",
    "    print(f\"  {i:02d}. Chapter {chap_num if chap_num != float('inf') else '?'} -> {mp3.name}\")\n",
    "\n",
    "# 1a. Create concat list\n",
    "concat_file = \"concat.txt\"\n",
    "with open(concat_file, \"w\", encoding=\"utf-8\") as f:\n",
    "    for mp3 in mp3_files:\n",
    "        f.write(f\"file '{mp3.as_posix()}'\\n\")\n",
    "\n",
    "print(\"Wrote concat list to:\", concat_file)\n",
    "\n",
    "# 1b. Create FFmetadata with chapters\n",
    "ffmeta_file = \"chapters.ffmetadata\"\n",
    "current_time = 0.0\n",
    "\n",
    "with open(ffmeta_file, \"w\", encoding=\"utf-8\") as f:\n",
    "    f.write(\";FFMETADATA1\\n\")\n",
    "    for i, mp3 in enumerate(mp3_files, 1):\n",
    "        duration = get_duration(mp3)\n",
    "        start_ms = int(current_time * 1000)\n",
    "        end_ms = int((current_time + duration) * 1000)\n",
    "\n",
    "        chap_num = parse_chapter_number(mp3.name)\n",
    "        if chap_num == float(\"inf\"):\n",
    "            chap_num = i\n",
    "        chapter_title = f\"Chapter {chap_num}\"\n",
    "\n",
    "        f.write(\"[CHAPTER]\\n\")\n",
    "        f.write(\"TIMEBASE=1/1000\\n\")\n",
    "        f.write(f\"START={start_ms}\\n\")\n",
    "        f.write(f\"END={end_ms}\\n\")\n",
    "        f.write(f\"title={chapter_title}\\n\\n\")\n",
    "\n",
    "        current_time += duration\n",
    "        print(f\"  -> {chapter_title}: {duration/60:.1f} min\")\n",
    "\n",
    "print(\"Wrote chapter metadata to:\", ffmeta_file)\n",
    "\n",
    "# 1c. Concatenate MP3s to temporary M4A (AAC 80 kb/s mono)\n",
    "temp_m4a = \"temp_combined.m4a\"\n",
    "print(\"\\n[Step 1] Concatenating MP3 files into AAC M4A (80 kb/s mono)...\")\n",
    "cmd = [\n",
    "    FFMPEG_BIN, \"-y\",\n",
    "    \"-f\", \"concat\", \"-safe\", \"0\",\n",
    "    \"-i\", str(concat_file),\n",
    "    \"-ac\", \"1\",          # mono\n",
    "    \"-c:a\", \"aac\",\n",
    "    \"-b:a\", \"80k\",       # target bitrate\n",
    "    str(temp_m4a),\n",
    "]\n",
    "print(\"Running:\", \" \".join(cmd))\n",
    "subprocess.run(cmd, check=True)\n",
    "\n",
    "print(\"Created:\", temp_m4a)\n",
    "print(f\"Total duration ~ {current_time/3600:.2f} hours\")\n"
   ]
  },
  {
   "cell_type": "code",
   "execution_count": null,
   "id": "1afdcac4",
   "metadata": {},
   "outputs": [
    {
     "name": "stdout",
     "output_type": "stream",
     "text": [
      "Audio in:   temp_combined.m4a\n",
      "Meta in:    chapters.ffmetadata\n",
      "Output m4b: _Oh_God_Not_Again_Harry_Potter_FanFic_no_cover.m4b\n",
      "Running: D:\\projects\\mp3tom4b_audiobook\\ffmpeg-2025-12-10-git-4f947880bd-essentials_build\\bin\\ffmpeg.exe -y -i temp_combined.m4a -i chapters.ffmetadata -map_metadata 1 -c copy -metadata title=Oh God Not Again! Harry Potter FanFic -metadata artist=Sarah1281 -metadata author=Sarah1281 -metadata album=Oh God Not Again! Harry Potter FanFic Audiobook -metadata album_artist=Patronus Pages -metadata genre=Audiobook -metadata date=2008 -metadata comment=Patronus Pages YT audiobook: https://www.youtube.com/playlist?list=PLba8WLPdVZSrCgji3KUyDuHpYI3mVruZD based on Harry Potter FanFic: https://www.fanfiction.net/s/4536005/2/Oh-God-Not-Again _Oh_God_Not_Again_Harry_Potter_FanFic_no_cover.m4b\n",
      "\n",
      "=== FFmpeg stdout ===\n",
      " \n",
      "\n",
      "=== FFmpeg stderr ===\n",
      " ffmpeg version 2025-12-10-git-4f947880bd-essentials_build-www.gyan.dev Copyright (c) 2000-2025 the FFmpeg developers\n",
      "  built with gcc 15.2.0 (Rev8, Built by MSYS2 project)\n",
      "  configuration: --enable-gpl --enable-version3 --enable-static --disable-w32threads --disable-autodetect --enable-cairo --enable-fontconfig --enable-iconv --enable-gnutls --enable-libxml2 --enable-gmp --enable-bzlib --enable-lzma --enable-zlib --enable-libsrt --enable-libssh --enable-libzmq --enable-avisynth --enable-sdl2 --enable-libwebp --enable-libx264 --enable-libx265 --enable-libxvid --enable-libaom --enable-libopenjpeg --enable-libvpx --enable-mediafoundation --enable-libass --enable-libfreetype --enable-libfribidi --enable-libharfbuzz --enable-libvidstab --enable-libvmaf --enable-libzimg --enable-amf --enable-cuda-llvm --enable-cuvid --enable-dxva2 --enable-d3d11va --enable-d3d12va --enable-ffnvcodec --enable-libvpl --enable-nvdec --enable-nvenc --enable-vaapi --enable-openal --enable-libgme --enable-libopenmpt --enable-libopencore-amrwb --enable-libmp3lame --enable-libtheora --enable-libvo-amrwbenc --enable-libgsm --enable-libopencore-amrnb --enable-libopus --enable-libspeex --enable-libvorbis --enable-librubberband\n",
      "  libavutil      60. 20.100 / 60. 20.100\n",
      "  libavcodec     62. 22.101 / 62. 22.101\n",
      "  libavformat    62.  6.103 / 62.  6.103\n",
      "  libavdevice    62.  2.100 / 62.  2.100\n",
      "  libavfilter    11. 10.101 / 11. 10.101\n",
      "  libswscale      9.  3.100 /  9.  3.100\n",
      "  libswresample   6.  2.100 /  6.  2.100\n",
      "Input #0, mov,mp4,m4a,3gp,3g2,mj2, from 'temp_combined.m4a':\n",
      "  Metadata:\n",
      "    major_brand     : M4A \n",
      "    minor_version   : 512\n",
      "    compatible_brands: M4A isomiso2\n",
      "    encoder         : Lavf62.6.103\n",
      "  Duration: 15:41:46.64, start: 0.000000, bitrate: 83 kb/s\n",
      "  Stream #0:0[0x1](eng): Audio: aac (LC) (mp4a / 0x6134706D), 44100 Hz, mono, fltp, 82 kb/s (default)\n",
      "    Metadata:\n",
      "      handler_name    : ISO Media file produced by Google Inc.\n",
      "Input #1, ffmetadata, from 'chapters.ffmetadata':\n",
      "  Duration: 15:41:46.64, start: 0.000000, bitrate: N/A\n",
      "  Chapters:\n",
      "    Chapter #1:0: start 0.000000, end 1257.174000\n",
      "      Metadata:\n",
      "        title           : Chapter 1\n",
      "    Chapter #1:1: start 1257.174000, end 2699.133000\n",
      "      Metadata:\n",
      "        title           : Chapter 2\n",
      "    Chapter #1:2: start 2699.133000, end 3934.621000\n",
      "      Metadata:\n",
      "        title           : Chapter 3\n",
      "    Chapter #1:3: start 3934.621000, end 5057.073000\n",
      "      Metadata:\n",
      "        title           : Chapter 4\n",
      "    Chapter #1:4: start 5057.073000, end 6225.827000\n",
      "      Metadata:\n",
      "        title           : Chapter 5\n",
      "    Chapter #1:5: start 6225.827000, end 7288.650000\n",
      "      Metadata:\n",
      "        title           : Chapter 6\n",
      "    Chapter #1:6: start 7288.650000, end 8272.294000\n",
      "      Metadata:\n",
      "        title           : Chapter 7\n",
      "    Chapter #1:7: start 8272.294000, end 9363.260000\n",
      "      Metadata:\n",
      "        title           : Chapter 8\n",
      "    Chapter #1:8: start 9363.260000, end 10587.207000\n",
      "      Metadata:\n",
      "        title           : Chapter 9\n",
      "    Chapter #1:9: start 10587.207000, end 12031.558000\n",
      "      Metadata:\n",
      "        title           : Chapter 10\n",
      "    Chapter #1:10: start 12031.558000, end 13032.872000\n",
      "      Metadata:\n",
      "        title           : Chapter 11\n",
      "    Chapter #1:11: start 13032.872000, end 14086.803000\n",
      "      Metadata:\n",
      "        title           : Chapter 12\n",
      "    Chapter #1:12: start 14086.803000, end 15120.277000\n",
      "      Metadata:\n",
      "        title           : Chapter 13\n",
      "    Chapter #1:13: start 15120.277000, end 16218.952000\n",
      "      Metadata:\n",
      "        title           : Chapter 14\n",
      "    Chapter #1:14: start 16218.952000, end 17389.354000\n",
      "      Metadata:\n",
      "        title           : Chapter 15\n",
      "    Chapter #1:15: start 17389.354000, end 18339.538000\n",
      "      Metadata:\n",
      "        title           : Chapter 16\n",
      "    Chapter #1:16: start 18339.538000, end 19513.608000\n",
      "      Metadata:\n",
      "        title           : Chapter 17\n",
      "    Chapter #1:17: start 19513.608000, end 20617.346000\n",
      "      Metadata:\n",
      "        title           : Chapter 18\n",
      "    Chapter #1:18: start 20617.346000, end 21780.990000\n",
      "      Metadata:\n",
      "        title           : Chapter 19\n",
      "    Chapter #1:19: start 21780.990000, end 22865.339000\n",
      "      Metadata:\n",
      "        title           : Chapter 20\n",
      "    Chapter #1:20: start 22865.339000, end 23953.217000\n",
      "      Metadata:\n",
      "        title           : Chapter 21\n",
      "    Chapter #1:21: start 23953.217000, end 25089.114000\n",
      "      Metadata:\n",
      "        title           : Chapter 22\n",
      "    Chapter #1:22: start 25089.114000, end 26231.745000\n",
      "      Metadata:\n",
      "        title           : Chapter 23\n",
      "    Chapter #1:23: start 26231.745000, end 27347.022000\n",
      "      Metadata:\n",
      "        title           : Chapter 24\n",
      "    Chapter #1:24: start 27347.022000, end 28834.864000\n",
      "      Metadata:\n",
      "        title           : Chapter 25\n",
      "    Chapter #1:25: start 28834.864000, end 30002.340000\n",
      "      Metadata:\n",
      "        title           : Chapter 26\n",
      "    Chapter #1:26: start 30002.340000, end 30993.740000\n",
      "      Metadata:\n",
      "        title           : Chapter 27\n",
      "    Chapter #1:27: start 30993.740000, end 32270.117000\n",
      "      Metadata:\n",
      "        title           : Chapter 28\n",
      "    Chapter #1:28: start 32270.117000, end 33627.672000\n",
      "      Metadata:\n",
      "        title           : Chapter 29\n",
      "    Chapter #1:29: start 33627.672000, end 34795.264000\n",
      "      Metadata:\n",
      "        title           : Chapter 30\n",
      "    Chapter #1:30: start 34795.264000, end 35627.839000\n",
      "      Metadata:\n",
      "        title           : Chapter 31\n",
      "    Chapter #1:31: start 35627.839000, end 36687.226000\n",
      "      Metadata:\n",
      "        title           : Chapter 32\n",
      "    Chapter #1:32: start 36687.226000, end 37631.164000\n",
      "      Metadata:\n",
      "        title           : Chapter 33\n",
      "    Chapter #1:33: start 37631.164000, end 38705.551000\n",
      "      Metadata:\n",
      "        title           : Chapter 34\n",
      "    Chapter #1:34: start 38705.551000, end 40053.191000\n",
      "      Metadata:\n",
      "        title           : Chapter 35\n",
      "    Chapter #1:35: start 40053.191000, end 41139.420000\n",
      "      Metadata:\n",
      "        title           : Chapter 36\n",
      "    Chapter #1:36: start 41139.420000, end 42122.112000\n",
      "      Metadata:\n",
      "        title           : Chapter 37\n",
      "    Chapter #1:37: start 42122.112000, end 43153.519000\n",
      "      Metadata:\n",
      "        title           : Chapter 38\n",
      "    Chapter #1:38: start 43153.519000, end 44323.410000\n",
      "      Metadata:\n",
      "        title           : Chapter 39\n",
      "    Chapter #1:39: start 44323.410000, end 45241.039000\n",
      "      Metadata:\n",
      "        title           : Chapter 40\n",
      "    Chapter #1:40: start 45241.039000, end 46333.910000\n",
      "      Metadata:\n",
      "        title           : Chapter 41\n",
      "    Chapter #1:41: start 46333.910000, end 47407.206000\n",
      "      Metadata:\n",
      "        title           : Chapter 42\n",
      "    Chapter #1:42: start 47407.206000, end 48205.833000\n",
      "      Metadata:\n",
      "        title           : Chapter 43\n",
      "    Chapter #1:43: start 48205.833000, end 49372.775000\n",
      "      Metadata:\n",
      "        title           : Chapter 44\n",
      "    Chapter #1:44: start 49372.775000, end 50459.051000\n",
      "      Metadata:\n",
      "        title           : Chapter 45\n",
      "    Chapter #1:45: start 50459.051000, end 51414.296000\n",
      "      Metadata:\n",
      "        title           : Chapter 46\n",
      "    Chapter #1:46: start 51414.296000, end 52660.070000\n",
      "      Metadata:\n",
      "        title           : Chapter 47\n",
      "    Chapter #1:47: start 52660.070000, end 54098.198000\n",
      "      Metadata:\n",
      "        title           : Chapter 48\n",
      "    Chapter #1:48: start 54098.198000, end 55342.556000\n",
      "      Metadata:\n",
      "        title           : Chapter 49\n",
      "    Chapter #1:49: start 55342.556000, end 56506.641000\n",
      "      Metadata:\n",
      "        title           : Chapter 50\n",
      "Stream mapping:\n",
      "  Stream #0:0 -> #0:0 (copy)\n",
      "Output #0, ipod, to '_Oh_God_Not_Again_Harry_Potter_FanFic_no_cover.m4b':\n",
      "  Metadata:\n",
      "    title           : Oh God Not Again! Harry Potter FanFic\n",
      "    artist          : Sarah1281\n",
      "    author          : Sarah1281\n",
      "    album           : Oh God Not Again! Harry Potter FanFic Audiobook\n",
      "    album_artist    : Patronus Pages\n",
      "    genre           : Audiobook\n",
      "    date            : 2008\n",
      "    comment         : Patronus Pages YT audiobook: https://www.youtube.com/playlist?list=PLba8WLPdVZSrCgji3KUyDuHpYI3mVruZD based on Harry Potter FanFic: https://www.fanfiction.net/s/4536005/2/Oh-God-Not-Again\n",
      "    encoder         : Lavf62.6.103\n",
      "  Chapters:\n",
      "    Chapter #0:0: start 0.000000, end 1257.174000\n",
      "      Metadata:\n",
      "        title           : Chapter 1\n",
      "    Chapter #0:1: start 1257.174000, end 2699.133000\n",
      "      Metadata:\n",
      "        title           : Chapter 2\n",
      "    Chapter #0:2: start 2699.133000, end 3934.621000\n",
      "      Metadata:\n",
      "        title           : Chapter 3\n",
      "    Chapter #0:3: start 3934.621000, end 5057.073000\n",
      "      Metadata:\n",
      "        title           : Chapter 4\n",
      "    Chapter #0:4: start 5057.073000, end 6225.827000\n",
      "      Metadata:\n",
      "        title           : Chapter 5\n",
      "    Chapter #0:5: start 6225.827000, end 7288.650000\n",
      "      Metadata:\n",
      "        title           : Chapter 6\n",
      "    Chapter #0:6: start 7288.650000, end 8272.294000\n",
      "      Metadata:\n",
      "        title           : Chapter 7\n",
      "    Chapter #0:7: start 8272.294000, end 9363.260000\n",
      "      Metadata:\n",
      "        title           : Chapter 8\n",
      "    Chapter #0:8: start 9363.260000, end 10587.207000\n",
      "      Metadata:\n",
      "        title           : Chapter 9\n",
      "    Chapter #0:9: start 10587.207000, end 12031.558000\n",
      "      Metadata:\n",
      "        title           : Chapter 10\n",
      "    Chapter #0:10: start 12031.558000, end 13032.872000\n",
      "      Metadata:\n",
      "        title           : Chapter 11\n",
      "    Chapter #0:11: start 13032.872000, end 14086.803000\n",
      "      Metadata:\n",
      "        title           : Chapter 12\n",
      "    Chapter #0:12: start 14086.803000, end 15120.277000\n",
      "      Metadata:\n",
      "        title           : Chapter 13\n",
      "    Chapter #0:13: start 15120.277000, end 16218.952000\n",
      "      Metadata:\n",
      "        title           : Chapter 14\n",
      "    Chapter #0:14: start 16218.952000, end 17389.354000\n",
      "      Metadata:\n",
      "        title           : Chapter 15\n",
      "    Chapter #0:15: start 17389.354000, end 18339.538000\n",
      "      Metadata:\n",
      "        title           : Chapter 16\n",
      "    Chapter #0:16: start 18339.538000, end 19513.608000\n",
      "      Metadata:\n",
      "        title           : Chapter 17\n",
      "    Chapter #0:17: start 19513.608000, end 20617.346000\n",
      "      Metadata:\n",
      "        title           : Chapter 18\n",
      "    Chapter #0:18: start 20617.346000, end 21780.990000\n",
      "      Metadata:\n",
      "        title           : Chapter 19\n",
      "    Chapter #0:19: start 21780.990000, end 22865.339000\n",
      "      Metadata:\n",
      "        title           : Chapter 20\n",
      "    Chapter #0:20: start 22865.339000, end 23953.217000\n",
      "      Metadata:\n",
      "        title           : Chapter 21\n",
      "    Chapter #0:21: start 23953.217000, end 25089.114000\n",
      "      Metadata:\n",
      "        title           : Chapter 22\n",
      "    Chapter #0:22: start 25089.114000, end 26231.745000\n",
      "      Metadata:\n",
      "        title           : Chapter 23\n",
      "    Chapter #0:23: start 26231.745000, end 27347.022000\n",
      "      Metadata:\n",
      "        title           : Chapter 24\n",
      "    Chapter #0:24: start 27347.022000, end 28834.864000\n",
      "      Metadata:\n",
      "        title           : Chapter 25\n",
      "    Chapter #0:25: start 28834.864000, end 30002.340000\n",
      "      Metadata:\n",
      "        title           : Chapter 26\n",
      "    Chapter #0:26: start 30002.340000, end 30993.740000\n",
      "      Metadata:\n",
      "        title           : Chapter 27\n",
      "    Chapter #0:27: start 30993.740000, end 32270.117000\n",
      "      Metadata:\n",
      "        title           : Chapter 28\n",
      "    Chapter #0:28: start 32270.117000, end 33627.672000\n",
      "      Metadata:\n",
      "        title           : Chapter 29\n",
      "    Chapter #0:29: start 33627.672000, end 34795.264000\n",
      "      Metadata:\n",
      "        title           : Chapter 30\n",
      "    Chapter #0:30: start 34795.264000, end 35627.839000\n",
      "      Metadata:\n",
      "        title           : Chapter 31\n",
      "    Chapter #0:31: start 35627.839000, end 36687.226000\n",
      "      Metadata:\n",
      "        title           : Chapter 32\n",
      "    Chapter #0:32: start 36687.226000, end 37631.164000\n",
      "      Metadata:\n",
      "        title           : Chapter 33\n",
      "    Chapter #0:33: start 37631.164000, end 38705.551000\n",
      "      Metadata:\n",
      "        title           : Chapter 34\n",
      "    Chapter #0:34: start 38705.551000, end 40053.191000\n",
      "      Metadata:\n",
      "        title           : Chapter 35\n",
      "    Chapter #0:35: start 40053.191000, end 41139.420000\n",
      "      Metadata:\n",
      "        title           : Chapter 36\n",
      "    Chapter #0:36: start 41139.420000, end 42122.112000\n",
      "      Metadata:\n",
      "        title           : Chapter 37\n",
      "    Chapter #0:37: start 42122.112000, end 43153.519000\n",
      "      Metadata:\n",
      "        title           : Chapter 38\n",
      "    Chapter #0:38: start 43153.519000, end 44323.410000\n",
      "      Metadata:\n",
      "        title           : Chapter 39\n",
      "    Chapter #0:39: start 44323.410000, end 45241.039000\n",
      "      Metadata:\n",
      "        title           : Chapter 40\n",
      "    Chapter #0:40: start 45241.039000, end 46333.910000\n",
      "      Metadata:\n",
      "        title           : Chapter 41\n",
      "    Chapter #0:41: start 46333.910000, end 47407.206000\n",
      "      Metadata:\n",
      "        title           : Chapter 42\n",
      "    Chapter #0:42: start 47407.206000, end 48205.833000\n",
      "      Metadata:\n",
      "        title           : Chapter 43\n",
      "    Chapter #0:43: start 48205.833000, end 49372.775000\n",
      "      Metadata:\n",
      "        title           : Chapter 44\n",
      "    Chapter #0:44: start 49372.775000, end 50459.051000\n",
      "      Metadata:\n",
      "        title           : Chapter 45\n",
      "    Chapter #0:45: start 50459.051000, end 51414.296000\n",
      "      Metadata:\n",
      "        title           : Chapter 46\n",
      "    Chapter #0:46: start 51414.296000, end 52660.070000\n",
      "      Metadata:\n",
      "        title           : Chapter 47\n",
      "    Chapter #0:47: start 52660.070000, end 54098.198000\n",
      "      Metadata:\n",
      "        title           : Chapter 48\n",
      "    Chapter #0:48: start 54098.198000, end 55342.556000\n",
      "      Metadata:\n",
      "        title           : Chapter 49\n",
      "    Chapter #0:49: start 55342.556000, end 56506.641000\n",
      "      Metadata:\n",
      "        title           : Chapter 50\n",
      "  Stream #0:0(eng): Audio: aac (LC) (mp4a / 0x6134706D), 44100 Hz, mono, fltp, 82 kb/s (default)\n",
      "    Metadata:\n",
      "      handler_name    : ISO Media file produced by Google Inc.\n",
      "Press [q] to stop, [?] for help\n",
      "size=   21761KiB time=00:36:22.88 bitrate=  81.7kbits/s speed=4.26e+03x elapsed=0:00:00.51    \n",
      "size=   38657KiB time=01:04:04.76 bitrate=  82.4kbits/s speed=3.71e+03x elapsed=0:00:01.03    \n",
      "size=   51201KiB time=01:25:01.88 bitrate=  82.2kbits/s speed=3.28e+03x elapsed=0:00:01.55    \n",
      "size=   61953KiB time=01:42:38.48 bitrate=  82.4kbits/s speed=2.99e+03x elapsed=0:00:02.06    \n",
      "size=   72449KiB time=01:59:40.91 bitrate=  82.7kbits/s speed=2.78e+03x elapsed=0:00:02.58    \n",
      "size=   81153KiB time=02:14:20.66 bitrate=  82.5kbits/s speed=2.61e+03x elapsed=0:00:03.09    \n",
      "size=   90369KiB time=02:29:24.20 bitrate=  82.6kbits/s speed=2.48e+03x elapsed=0:00:03.61    \n",
      "size=   98049KiB time=02:42:05.07 bitrate=  82.6kbits/s speed=2.36e+03x elapsed=0:00:04.12    \n",
      "size=  105729KiB time=02:54:45.94 bitrate=  82.6kbits/s speed=2.26e+03x elapsed=0:00:04.64    \n",
      "size=  112385KiB time=03:05:51.73 bitrate=  82.6kbits/s speed=2.17e+03x elapsed=0:00:05.15    \n",
      "size=  119809KiB time=03:17:54.49 bitrate=  82.7kbits/s speed=2.09e+03x elapsed=0:00:05.67    \n",
      "size=  125953KiB time=03:28:03.23 bitrate=  82.7kbits/s speed=2.02e+03x elapsed=0:00:06.18    \n",
      "size=  132609KiB time=03:39:08.99 bitrate=  82.6kbits/s speed=1.96e+03x elapsed=0:00:06.70    \n",
      "size=  138753KiB time=03:49:27.20 bitrate=  82.6kbits/s speed=1.9e+03x elapsed=0:00:07.22    \n",
      "size=  144897KiB time=03:59:21.63 bitrate=  82.7kbits/s speed=1.86e+03x elapsed=0:00:07.73    \n",
      "size=  150273KiB time=04:08:28.51 bitrate=  82.6kbits/s speed=1.81e+03x elapsed=0:00:08.24    \n",
      "size=  156161KiB time=04:17:59.16 bitrate=  82.6kbits/s speed=1.77e+03x elapsed=0:00:08.76    \n",
      "size=  161281KiB time=04:26:42.28 bitrate=  82.6kbits/s speed=1.72e+03x elapsed=0:00:09.28    \n",
      "size=  166657KiB time=04:35:38.22 bitrate=  82.6kbits/s speed=1.69e+03x elapsed=0:00:09.79    \n",
      "size=  172033KiB time=04:44:08.46 bitrate=  82.7kbits/s speed=1.65e+03x elapsed=0:00:10.31    \n",
      "size=  177153KiB time=04:52:51.56 bitrate=  82.6kbits/s speed=1.62e+03x elapsed=0:00:10.82    \n",
      "size=  182017KiB time=05:00:47.10 bitrate=  82.6kbits/s speed=1.59e+03x elapsed=0:00:11.34    \n",
      "size=  187137KiB time=05:09:28.92 bitrate=  82.6kbits/s speed=1.56e+03x elapsed=0:00:11.86    \n",
      "size=  191745KiB time=05:17:01.97 bitrate=  82.6kbits/s speed=1.53e+03x elapsed=0:00:12.39    \n",
      "size=  196609KiB time=05:24:57.51 bitrate=  82.6kbits/s speed=1.51e+03x elapsed=0:00:12.91    \n",
      "size=  200961KiB time=05:32:23.43 bitrate=  82.5kbits/s speed=1.49e+03x elapsed=0:00:13.41    \n",
      "size=  205825KiB time=05:40:09.29 bitrate=  82.6kbits/s speed=1.46e+03x elapsed=0:00:13.94    \n",
      "size=  209921KiB time=05:47:09.04 bitrate=  82.6kbits/s speed=1.44e+03x elapsed=0:00:14.45    \n",
      "size=  214529KiB time=05:54:40.80 bitrate=  82.6kbits/s speed=1.42e+03x elapsed=0:00:14.97    \n",
      "size=  218881KiB time=06:01:48.80 bitrate=  82.6kbits/s speed=1.4e+03x elapsed=0:00:15.48    \n",
      "size=  223233KiB time=06:08:56.79 bitrate=  82.6kbits/s speed=1.38e+03x elapsed=0:00:16.00    \n",
      "size=  227329KiB time=06:15:41.00 bitrate=  82.6kbits/s speed=1.37e+03x elapsed=0:00:16.51    \n",
      "size=  231681KiB time=06:22:55.68 bitrate=  82.6kbits/s speed=1.35e+03x elapsed=0:00:17.03    \n",
      "size=  236033KiB time=06:29:56.98 bitrate=  82.6kbits/s speed=1.33e+03x elapsed=0:00:17.54    \n",
      "size=  240129KiB time=06:36:41.19 bitrate=  82.6kbits/s speed=1.32e+03x elapsed=0:00:18.06    \n",
      "size=  244225KiB time=06:43:25.40 bitrate=  82.7kbits/s speed=1.3e+03x elapsed=0:00:18.57    \n",
      "size=  248321KiB time=06:50:09.62 bitrate=  82.7kbits/s speed=1.29e+03x elapsed=0:00:19.09    \n",
      "size=  252161KiB time=06:56:30.05 bitrate=  82.7kbits/s speed=1.27e+03x elapsed=0:00:19.60    \n",
      "size=  255745KiB time=07:02:50.49 bitrate=  82.6kbits/s speed=1.26e+03x elapsed=0:00:20.11    \n",
      "size=  259841KiB time=07:09:34.70 bitrate=  82.6kbits/s speed=1.25e+03x elapsed=0:00:20.64    \n",
      "size=  263681KiB time=07:15:31.36 bitrate=  82.7kbits/s speed=1.24e+03x elapsed=0:00:21.15    \n",
      "size=  267521KiB time=07:21:51.80 bitrate=  82.7kbits/s speed=1.22e+03x elapsed=0:00:21.67    \n",
      "size=  271105KiB time=07:27:48.45 bitrate=  82.7kbits/s speed=1.21e+03x elapsed=0:00:22.19    \n",
      "size=  274945KiB time=07:34:08.89 bitrate=  82.7kbits/s speed=1.2e+03x elapsed=0:00:22.70    \n",
      "size=  278273KiB time=07:39:59.00 bitrate=  82.6kbits/s speed=1.19e+03x elapsed=0:00:23.22    \n",
      "size=  282113KiB time=07:46:02.21 bitrate=  82.6kbits/s speed=1.18e+03x elapsed=0:00:23.73    \n",
      "size=  285697KiB time=07:51:58.68 bitrate=  82.6kbits/s speed=1.17e+03x elapsed=0:00:24.25    \n",
      "size=  289281KiB time=07:57:55.52 bitrate=  82.6kbits/s speed=1.16e+03x elapsed=0:00:24.76    \n",
      "size=  292609KiB time=08:03:28.41 bitrate=  82.6kbits/s speed=1.15e+03x elapsed=0:00:25.27    \n",
      "size=  296193KiB time=08:09:25.06 bitrate=  82.6kbits/s speed=1.14e+03x elapsed=0:00:25.80    \n",
      "size=  299521KiB time=08:14:57.95 bitrate=  82.6kbits/s speed=1.13e+03x elapsed=0:00:26.31    \n",
      "size=  302849KiB time=08:20:35.42 bitrate=  82.6kbits/s speed=1.12e+03x elapsed=0:00:26.82    \n",
      "size=  306177KiB time=08:26:03.71 bitrate=  82.6kbits/s speed=1.11e+03x elapsed=0:00:27.34    \n",
      "size=  309761KiB time=08:31:53.17 bitrate=  82.6kbits/s speed=1.1e+03x elapsed=0:00:27.85    \n",
      "size=  312833KiB time=08:37:09.47 bitrate=  82.6kbits/s speed=1.09e+03x elapsed=0:00:28.38    \n",
      "size=  316161KiB time=08:42:42.35 bitrate=  82.6kbits/s speed=1.09e+03x elapsed=0:00:28.88    \n",
      "size=  319489KiB time=08:48:15.23 bitrate=  82.6kbits/s speed=1.08e+03x elapsed=0:00:29.41    \n",
      "size=  322561KiB time=08:53:24.34 bitrate=  82.6kbits/s speed=1.07e+03x elapsed=0:00:29.91    \n",
      "size=  325633KiB time=08:58:09.66 bitrate=  82.6kbits/s speed=1.06e+03x elapsed=0:00:30.44    \n",
      "size=  328705KiB time=09:03:19.35 bitrate=  82.6kbits/s speed=1.05e+03x elapsed=0:00:30.94    \n",
      "size=  331777KiB time=09:08:27.87 bitrate=  82.6kbits/s speed=1.05e+03x elapsed=0:00:31.47    \n",
      "size=  334849KiB time=09:13:36.98 bitrate=  82.6kbits/s speed=1.04e+03x elapsed=0:00:31.97    \n",
      "size=  337921KiB time=09:18:22.30 bitrate=  82.6kbits/s speed=1.03e+03x elapsed=0:00:32.49    \n",
      "size=  340993KiB time=09:23:31.41 bitrate=  82.6kbits/s speed=1.02e+03x elapsed=0:00:33.02    \n",
      "size=  343809KiB time=09:28:16.73 bitrate=  82.6kbits/s speed=1.02e+03x elapsed=0:00:33.52    \n",
      "size=  346625KiB time=09:33:02.06 bitrate=  82.6kbits/s speed=1.01e+03x elapsed=0:00:34.05    \n",
      "size=  349697KiB time=09:37:47.39 bitrate=  82.6kbits/s speed=1e+03x elapsed=0:00:34.56    \n",
      "size=  352513KiB time=09:42:32.71 bitrate=  82.6kbits/s speed= 996x elapsed=0:00:35.07    \n",
      "size=  355585KiB time=09:47:41.82 bitrate=  82.6kbits/s speed= 990x elapsed=0:00:35.60    \n",
      "size=  358145KiB time=09:52:08.69 bitrate=  82.6kbits/s speed= 984x elapsed=0:00:36.10    \n",
      "size=  360961KiB time=09:56:48.69 bitrate=  82.6kbits/s speed= 978x elapsed=0:00:36.62    \n",
      "size=  363521KiB time=10:01:10.24 bitrate=  82.6kbits/s speed= 971x elapsed=0:00:37.14    \n",
      "size=  366593KiB time=10:05:55.57 bitrate=  82.6kbits/s speed= 966x elapsed=0:00:37.65    \n",
      "size=  369153KiB time=10:10:17.12 bitrate=  82.6kbits/s speed= 959x elapsed=0:00:38.17    \n",
      "size=  371969KiB time=10:15:02.45 bitrate=  82.6kbits/s speed= 954x elapsed=0:00:38.69    \n",
      "size=  374785KiB time=10:19:43.94 bitrate=  82.6kbits/s speed= 948x elapsed=0:00:39.20    \n",
      "size=  377601KiB time=10:24:09.32 bitrate=  82.6kbits/s speed= 943x elapsed=0:00:39.72    \n",
      "size=  380161KiB time=10:28:30.87 bitrate=  82.6kbits/s speed= 937x elapsed=0:00:40.25    \n",
      "size=  382977KiB time=10:33:16.20 bitrate=  82.6kbits/s speed= 932x elapsed=0:00:40.77    \n",
      "size=  385793KiB time=10:37:37.75 bitrate=  82.6kbits/s speed= 927x elapsed=0:00:41.27    \n",
      "size=  388609KiB time=10:42:23.08 bitrate=  82.6kbits/s speed= 922x elapsed=0:00:41.80    \n",
      "size=  390913KiB time=10:46:20.85 bitrate=  82.6kbits/s speed= 917x elapsed=0:00:42.30    \n",
      "size=  393985KiB time=10:51:06.18 bitrate=  82.6kbits/s speed= 912x elapsed=0:00:42.83    \n",
      "size=  396289KiB time=10:55:03.95 bitrate=  82.6kbits/s speed= 907x elapsed=0:00:43.35    \n",
      "size=  398849KiB time=10:59:25.50 bitrate=  82.6kbits/s speed= 902x elapsed=0:00:43.85    \n",
      "size=  401409KiB time=11:03:23.27 bitrate=  82.6kbits/s speed= 897x elapsed=0:00:44.38    \n",
      "size=  403969KiB time=11:07:44.82 bitrate=  82.6kbits/s speed= 893x elapsed=0:00:44.88    \n",
      "size=  406785KiB time=11:12:06.37 bitrate=  82.6kbits/s speed= 888x elapsed=0:00:45.40    \n",
      "size=  409345KiB time=11:16:27.92 bitrate=  82.6kbits/s speed= 884x elapsed=0:00:45.92    \n",
      "size=  411649KiB time=11:20:25.69 bitrate=  82.6kbits/s speed= 879x elapsed=0:00:46.44    \n",
      "size=  414465KiB time=11:24:47.24 bitrate=  82.6kbits/s speed= 875x elapsed=0:00:46.95    \n",
      "size=  416769KiB time=11:28:35.45 bitrate=  82.6kbits/s speed= 870x elapsed=0:00:47.46    \n",
      "size=  419073KiB time=11:32:42.79 bitrate=  82.6kbits/s speed= 866x elapsed=0:00:47.98    \n",
      "size=  421633KiB time=11:36:40.56 bitrate=  82.6kbits/s speed= 862x elapsed=0:00:48.49    \n",
      "size=  424193KiB time=11:41:02.11 bitrate=  82.6kbits/s speed= 858x elapsed=0:00:49.01    \n",
      "size=  426497KiB time=11:44:59.88 bitrate=  82.6kbits/s speed= 854x elapsed=0:00:49.52    \n",
      "size=  429057KiB time=11:48:57.65 bitrate=  82.6kbits/s speed= 850x elapsed=0:00:50.05    \n",
      "size=  431617KiB time=11:53:07.73 bitrate=  82.6kbits/s speed= 846x elapsed=0:00:50.55    \n",
      "size=  433921KiB time=11:57:16.97 bitrate=  82.6kbits/s speed= 843x elapsed=0:00:51.08    \n",
      "size=  436225KiB time=12:00:50.97 bitrate=  82.6kbits/s speed= 838x elapsed=0:00:51.58    \n",
      "size=  438785KiB time=12:05:12.52 bitrate=  82.6kbits/s speed= 835x elapsed=0:00:52.10    \n",
      "size=  441345KiB time=12:09:26.61 bitrate=  82.6kbits/s speed= 832x elapsed=0:00:52.62    \n",
      "size=  443905KiB time=12:13:25.76 bitrate=  82.6kbits/s speed= 828x elapsed=0:00:53.14    \n",
      "size=  445953KiB time=12:17:05.84 bitrate=  82.6kbits/s speed= 824x elapsed=0:00:53.65    \n",
      "size=  448769KiB time=12:21:27.38 bitrate=  82.6kbits/s speed= 821x elapsed=0:00:54.17    \n",
      "size=  451073KiB time=12:25:25.16 bitrate=  82.6kbits/s speed= 818x elapsed=0:00:54.68    \n",
      "size=  453377KiB time=12:29:22.93 bitrate=  82.6kbits/s speed= 814x elapsed=0:00:55.21    \n",
      "size=  455937KiB time=12:33:20.70 bitrate=  82.6kbits/s speed= 811x elapsed=0:00:55.71    \n",
      "size=  458241KiB time=12:37:18.47 bitrate=  82.6kbits/s speed= 808x elapsed=0:00:56.24    \n",
      "size=  460545KiB time=12:41:16.25 bitrate=  82.6kbits/s speed= 805x elapsed=0:00:56.75    \n",
      "size=  463105KiB time=12:45:14.02 bitrate=  82.6kbits/s speed= 802x elapsed=0:00:57.26    \n",
      "size=  465409KiB time=12:49:11.79 bitrate=  82.6kbits/s speed= 799x elapsed=0:00:57.78    \n",
      "size=  467457KiB time=12:52:45.79 bitrate=  82.6kbits/s speed= 795x elapsed=0:00:58.29    \n",
      "size=  470017KiB time=12:56:43.56 bitrate=  82.6kbits/s speed= 792x elapsed=0:00:58.81    \n",
      "size=  472065KiB time=13:00:17.55 bitrate=  82.6kbits/s speed= 789x elapsed=0:00:59.32    \n",
      "size=  474369KiB time=13:04:15.33 bitrate=  82.6kbits/s speed= 786x elapsed=0:00:59.84    \n",
      "size=  476673KiB time=13:07:49.32 bitrate=  82.6kbits/s speed= 783x elapsed=0:01:00.35    \n",
      "size=  478977KiB time=13:11:47.09 bitrate=  82.6kbits/s speed= 780x elapsed=0:01:00.88    \n",
      "size=  481281KiB time=13:15:44.87 bitrate=  82.6kbits/s speed= 778x elapsed=0:01:01.39    \n",
      "size=  483585KiB time=13:19:18.86 bitrate=  82.6kbits/s speed= 775x elapsed=0:01:01.90    \n",
      "size=  485889KiB time=13:23:16.63 bitrate=  82.6kbits/s speed= 772x elapsed=0:01:02.42    \n",
      "size=  488193KiB time=13:27:13.22 bitrate=  82.6kbits/s speed= 770x elapsed=0:01:02.93    \n",
      "size=  490497KiB time=13:30:48.40 bitrate=  82.6kbits/s speed= 767x elapsed=0:01:03.46    \n",
      "size=  492545KiB time=13:34:22.40 bitrate=  82.6kbits/s speed= 764x elapsed=0:01:03.97    \n",
      "size=  494849KiB time=13:37:56.39 bitrate=  82.6kbits/s speed= 761x elapsed=0:01:04.47    \n",
      "size=  497153KiB time=13:41:54.16 bitrate=  82.6kbits/s speed= 759x elapsed=0:01:05.00    \n",
      "size=  499201KiB time=13:45:04.38 bitrate=  82.6kbits/s speed= 756x elapsed=0:01:05.50    \n",
      "size=  501249KiB time=13:48:38.38 bitrate=  82.6kbits/s speed= 753x elapsed=0:01:06.03    \n",
      "size=  503041KiB time=13:51:48.59 bitrate=  82.6kbits/s speed= 750x elapsed=0:01:06.54    \n",
      "size=  505601KiB time=13:55:46.37 bitrate=  82.6kbits/s speed= 748x elapsed=0:01:07.06    \n",
      "size=  507393KiB time=13:58:56.58 bitrate=  82.6kbits/s speed= 745x elapsed=0:01:07.58    \n",
      "size=  509697KiB time=14:02:30.58 bitrate=  82.6kbits/s speed= 742x elapsed=0:01:08.11    \n",
      "size=  511745KiB time=14:06:04.57 bitrate=  82.6kbits/s speed= 740x elapsed=0:01:08.63    \n",
      "size=  513793KiB time=14:09:38.57 bitrate=  82.6kbits/s speed= 737x elapsed=0:01:09.15    \n",
      "size=  516097KiB time=14:13:12.56 bitrate=  82.6kbits/s speed= 735x elapsed=0:01:09.67    \n",
      "size=  517889KiB time=14:16:22.78 bitrate=  82.6kbits/s speed= 732x elapsed=0:01:10.18    \n",
      "size=  520193KiB time=14:19:56.78 bitrate=  82.6kbits/s speed= 730x elapsed=0:01:10.70    \n",
      "size=  521985KiB time=14:23:07.00 bitrate=  82.6kbits/s speed= 727x elapsed=0:01:11.21    \n",
      "size=  524289KiB time=14:26:40.99 bitrate=  82.6kbits/s speed= 725x elapsed=0:01:11.73    \n",
      "size=  526081KiB time=14:29:51.21 bitrate=  82.6kbits/s speed= 722x elapsed=0:01:12.25    \n",
      "size=  528129KiB time=14:33:25.20 bitrate=  82.6kbits/s speed= 720x elapsed=0:01:12.78    \n",
      "size=  530177KiB time=14:36:35.42 bitrate=  82.6kbits/s speed= 718x elapsed=0:01:13.30    \n",
      "size=  532225KiB time=14:40:09.42 bitrate=  82.6kbits/s speed= 715x elapsed=0:01:13.81    \n",
      "size=  534273KiB time=14:43:19.63 bitrate=  82.6kbits/s speed= 713x elapsed=0:01:14.33    \n",
      "size=  536321KiB time=14:46:34.57 bitrate=  82.6kbits/s speed= 711x elapsed=0:01:14.85    \n",
      "size=  538369KiB time=14:50:03.85 bitrate=  82.6kbits/s speed= 708x elapsed=0:01:15.38    \n",
      "size=  540417KiB time=14:53:37.84 bitrate=  82.6kbits/s speed= 706x elapsed=0:01:15.91    \n",
      "size=  542209KiB time=14:56:24.28 bitrate=  82.6kbits/s speed= 704x elapsed=0:01:16.41    \n",
      "size=  544257KiB time=14:59:58.28 bitrate=  82.6kbits/s speed= 702x elapsed=0:01:16.94    \n",
      "size=  546305KiB time=15:03:08.50 bitrate=  82.6kbits/s speed= 700x elapsed=0:01:17.44    \n",
      "size=  548353KiB time=15:06:42.49 bitrate=  82.6kbits/s speed= 698x elapsed=0:01:17.97    \n",
      "size=  550401KiB time=15:09:52.71 bitrate=  82.6kbits/s speed= 696x elapsed=0:01:18.47    \n",
      "size=  552449KiB time=15:13:26.70 bitrate=  82.6kbits/s speed= 694x elapsed=0:01:19.00    \n",
      "size=  555265KiB time=15:17:48.25 bitrate=  82.6kbits/s speed= 693x elapsed=0:01:19.51    \n",
      "size=  557825KiB time=15:22:09.80 bitrate=  82.6kbits/s speed= 691x elapsed=0:01:20.03    \n",
      "size=  560129KiB time=15:26:07.58 bitrate=  82.6kbits/s speed= 690x elapsed=0:01:20.55    \n",
      "size=  562689KiB time=15:30:29.13 bitrate=  82.6kbits/s speed= 689x elapsed=0:01:21.07    \n",
      "size=  565249KiB time=15:34:26.90 bitrate=  82.6kbits/s speed= 687x elapsed=0:01:21.60    \n",
      "size=  567809KiB time=15:38:48.45 bitrate=  82.6kbits/s speed= 686x elapsed=0:01:22.10    \n",
      "[out#0/ipod @ 0000022286802680] video:0KiB audio:569776KiB subtitle:0KiB other streams:0KiB global headers:0KiB muxing overhead: 1.670679%\n",
      "size=  579295KiB time=15:41:46.64 bitrate=  84.0kbits/s speed= 684x elapsed=0:01:22.56    \n",
      "\n",
      "\n",
      "Return code: 0\n"
     ]
    }
   ],
   "source": [
    "#Combine into one m4b with chapters\n",
    "\n",
    "from pathlib import Path\n",
    "import subprocess\n",
    "\n",
    "AUDIO_IN   = \"temp_combined.m4a\"\n",
    "FFMETA_IN  = \"chapters.ffmetadata\"\n",
    "OUTPUT_M4B = \"_Oh_God_Not_Again_Harry_Potter_FanFic_no_cover.m4b\"\n",
    "\n",
    "print(\"Audio in:  \", AUDIO_IN)\n",
    "print(\"Meta in:   \", FFMETA_IN)\n",
    "print(\"Output m4b:\", OUTPUT_M4B)\n",
    "\n",
    "cmd = [\n",
    "    FFMPEG_BIN, \"-y\",\n",
    "    \"-i\", str(AUDIO_IN),      # 0: audio\n",
    "    \"-i\", str(FFMETA_IN),     # 1: chapters\n",
    "    \"-map_metadata\", \"1\",     # take chapters/metadata from ffmetadata\n",
    "    \"-c\", \"copy\",\n",
    "    \"-metadata\", f\"title={METADATA['title']}\",\n",
    "    \"-metadata\", f\"artist={METADATA['artist']}\",\n",
    "    \"-metadata\", f\"author={METADATA['author']}\",\n",
    "    \"-metadata\", f\"album={METADATA['album']}\",\n",
    "    \"-metadata\", f\"album_artist={METADATA['album_artist']}\",\n",
    "    \"-metadata\", f\"genre={METADATA['genre']}\",\n",
    "    \"-metadata\", f\"date={METADATA['date']}\",\n",
    "    \"-metadata\", f\"comment={METADATA['comment']}\",\n",
    "    str(OUTPUT_M4B),\n",
    "]\n",
    "\n",
    "print(\"Running:\", \" \".join(cmd))\n",
    "result = subprocess.run(cmd, text=True, capture_output=True)\n",
    "print(\"\\n=== FFmpeg stdout ===\\n\", result.stdout)\n",
    "print(\"\\n=== FFmpeg stderr ===\\n\", result.stderr)\n",
    "print(\"\\nReturn code:\", result.returncode)\n"
   ]
  },
  {
   "cell_type": "code",
   "execution_count": null,
   "id": "996e3886",
   "metadata": {},
   "outputs": [
    {
     "name": "stdout",
     "output_type": "stream",
     "text": [
      "Input m4b:  _Oh_God_Not_Again_Harry_Potter_FanFic_no_cover.m4b\n",
      "Cover:      D:\\Downloads\\Harry Potter - Oh God Not Again! FanFiction Patronus Pages AudioBook\\cover_thumbnail.jpg\n",
      "Output m4b: D:\\Downloads\\Harry Potter - Oh God Not Again! FanFiction Patronus Pages AudioBook\\Oh_God_Not_Again_Harry_Potter_FanFic.m4b\n",
      "Running: D:\\projects\\mp3tom4b_audiobook\\ffmpeg-2025-12-10-git-4f947880bd-essentials_build\\bin\\ffmpeg.exe -y -i _Oh_God_Not_Again_Harry_Potter_FanFic_no_cover.m4b -i D:\\Downloads\\Harry Potter - Oh God Not Again! FanFiction Patronus Pages AudioBook\\cover_thumbnail.jpg -map 0:a -map 0:t? -map 1:v -c copy -c:v mjpeg -disposition:v:0 attached_pic D:\\Downloads\\Harry Potter - Oh God Not Again! FanFiction Patronus Pages AudioBook\\Oh_God_Not_Again_Harry_Potter_FanFic.m4b\n",
      "\n",
      "=== FFmpeg stdout ===\n",
      " \n",
      "\n",
      "=== FFmpeg stderr ===\n",
      " ffmpeg version 2025-12-10-git-4f947880bd-essentials_build-www.gyan.dev Copyright (c) 2000-2025 the FFmpeg developers\n",
      "  built with gcc 15.2.0 (Rev8, Built by MSYS2 project)\n",
      "  configuration: --enable-gpl --enable-version3 --enable-static --disable-w32threads --disable-autodetect --enable-cairo --enable-fontconfig --enable-iconv --enable-gnutls --enable-libxml2 --enable-gmp --enable-bzlib --enable-lzma --enable-zlib --enable-libsrt --enable-libssh --enable-libzmq --enable-avisynth --enable-sdl2 --enable-libwebp --enable-libx264 --enable-libx265 --enable-libxvid --enable-libaom --enable-libopenjpeg --enable-libvpx --enable-mediafoundation --enable-libass --enable-libfreetype --enable-libfribidi --enable-libharfbuzz --enable-libvidstab --enable-libvmaf --enable-libzimg --enable-amf --enable-cuda-llvm --enable-cuvid --enable-dxva2 --enable-d3d11va --enable-d3d12va --enable-ffnvcodec --enable-libvpl --enable-nvdec --enable-nvenc --enable-vaapi --enable-openal --enable-libgme --enable-libopenmpt --enable-libopencore-amrwb --enable-libmp3lame --enable-libtheora --enable-libvo-amrwbenc --enable-libgsm --enable-libopencore-amrnb --enable-libopus --enable-libspeex --enable-libvorbis --enable-librubberband\n",
      "  libavutil      60. 20.100 / 60. 20.100\n",
      "  libavcodec     62. 22.101 / 62. 22.101\n",
      "  libavformat    62.  6.103 / 62.  6.103\n",
      "  libavdevice    62.  2.100 / 62.  2.100\n",
      "  libavfilter    11. 10.101 / 11. 10.101\n",
      "  libswscale      9.  3.100 /  9.  3.100\n",
      "  libswresample   6.  2.100 /  6.  2.100\n",
      "Input #0, mov,mp4,m4a,3gp,3g2,mj2, from '_Oh_God_Not_Again_Harry_Potter_FanFic_no_cover.m4b':\n",
      "  Metadata:\n",
      "    major_brand     : M4A \n",
      "    minor_version   : 512\n",
      "    compatible_brands: M4A isomiso2\n",
      "    title           : Oh God Not Again! Harry Potter FanFic\n",
      "    artist          : Sarah1281\n",
      "    album_artist    : Patronus Pages\n",
      "    album           : Oh God Not Again! Harry Potter FanFic Audiobook\n",
      "    date            : 2008\n",
      "    encoder         : Lavf62.6.103\n",
      "    comment         : Patronus Pages YT audiobook: https://www.youtube.com/playlist?list=PLba8WLPdVZSrCgji3KUyDuHpYI3mVruZD based on Harry Potter FanFic: https://www.fanfiction.net/s/4536005/2/Oh-God-Not-Again\n",
      "    genre           : Audiobook\n",
      "  Duration: 15:41:46.64, start: 0.000000, bitrate: 83 kb/s\n",
      "  Chapters:\n",
      "    Chapter #0:0: start 0.000000, end 1257.174000\n",
      "      Metadata:\n",
      "        title           : Chapter 1\n",
      "    Chapter #0:1: start 1257.174000, end 2699.133000\n",
      "      Metadata:\n",
      "        title           : Chapter 2\n",
      "    Chapter #0:2: start 2699.133000, end 3934.621000\n",
      "      Metadata:\n",
      "        title           : Chapter 3\n",
      "    Chapter #0:3: start 3934.621000, end 5057.073000\n",
      "      Metadata:\n",
      "        title           : Chapter 4\n",
      "    Chapter #0:4: start 5057.073000, end 6225.827000\n",
      "      Metadata:\n",
      "        title           : Chapter 5\n",
      "    Chapter #0:5: start 6225.827000, end 7288.650000\n",
      "      Metadata:\n",
      "        title           : Chapter 6\n",
      "    Chapter #0:6: start 7288.650000, end 8272.294000\n",
      "      Metadata:\n",
      "        title           : Chapter 7\n",
      "    Chapter #0:7: start 8272.294000, end 9363.260000\n",
      "      Metadata:\n",
      "        title           : Chapter 8\n",
      "    Chapter #0:8: start 9363.260000, end 10587.207000\n",
      "      Metadata:\n",
      "        title           : Chapter 9\n",
      "    Chapter #0:9: start 10587.207000, end 12031.558000\n",
      "      Metadata:\n",
      "        title           : Chapter 10\n",
      "    Chapter #0:10: start 12031.558000, end 13032.872000\n",
      "      Metadata:\n",
      "        title           : Chapter 11\n",
      "    Chapter #0:11: start 13032.872000, end 14086.803000\n",
      "      Metadata:\n",
      "        title           : Chapter 12\n",
      "    Chapter #0:12: start 14086.803000, end 15120.277000\n",
      "      Metadata:\n",
      "        title           : Chapter 13\n",
      "    Chapter #0:13: start 15120.277000, end 16218.952000\n",
      "      Metadata:\n",
      "        title           : Chapter 14\n",
      "    Chapter #0:14: start 16218.952000, end 17389.354000\n",
      "      Metadata:\n",
      "        title           : Chapter 15\n",
      "    Chapter #0:15: start 17389.354000, end 18339.538000\n",
      "      Metadata:\n",
      "        title           : Chapter 16\n",
      "    Chapter #0:16: start 18339.538000, end 19513.608000\n",
      "      Metadata:\n",
      "        title           : Chapter 17\n",
      "    Chapter #0:17: start 19513.608000, end 20617.346000\n",
      "      Metadata:\n",
      "        title           : Chapter 18\n",
      "    Chapter #0:18: start 20617.346000, end 21780.990000\n",
      "      Metadata:\n",
      "        title           : Chapter 19\n",
      "    Chapter #0:19: start 21780.990000, end 22865.339000\n",
      "      Metadata:\n",
      "        title           : Chapter 20\n",
      "    Chapter #0:20: start 22865.339000, end 23953.217000\n",
      "      Metadata:\n",
      "        title           : Chapter 21\n",
      "    Chapter #0:21: start 23953.217000, end 25089.114000\n",
      "      Metadata:\n",
      "        title           : Chapter 22\n",
      "    Chapter #0:22: start 25089.114000, end 26231.745000\n",
      "      Metadata:\n",
      "        title           : Chapter 23\n",
      "    Chapter #0:23: start 26231.745000, end 27347.022000\n",
      "      Metadata:\n",
      "        title           : Chapter 24\n",
      "    Chapter #0:24: start 27347.022000, end 28834.864000\n",
      "      Metadata:\n",
      "        title           : Chapter 25\n",
      "    Chapter #0:25: start 28834.864000, end 30002.340000\n",
      "      Metadata:\n",
      "        title           : Chapter 26\n",
      "    Chapter #0:26: start 30002.340000, end 30993.740000\n",
      "      Metadata:\n",
      "        title           : Chapter 27\n",
      "    Chapter #0:27: start 30993.740000, end 32270.117000\n",
      "      Metadata:\n",
      "        title           : Chapter 28\n",
      "    Chapter #0:28: start 32270.117000, end 33627.672000\n",
      "      Metadata:\n",
      "        title           : Chapter 29\n",
      "    Chapter #0:29: start 33627.672000, end 34795.264000\n",
      "      Metadata:\n",
      "        title           : Chapter 30\n",
      "    Chapter #0:30: start 34795.264000, end 35627.839000\n",
      "      Metadata:\n",
      "        title           : Chapter 31\n",
      "    Chapter #0:31: start 35627.839000, end 36687.226000\n",
      "      Metadata:\n",
      "        title           : Chapter 32\n",
      "    Chapter #0:32: start 36687.226000, end 37631.164000\n",
      "      Metadata:\n",
      "        title           : Chapter 33\n",
      "    Chapter #0:33: start 37631.164000, end 38705.551000\n",
      "      Metadata:\n",
      "        title           : Chapter 34\n",
      "    Chapter #0:34: start 38705.551000, end 40053.191000\n",
      "      Metadata:\n",
      "        title           : Chapter 35\n",
      "    Chapter #0:35: start 40053.191000, end 41139.420000\n",
      "      Metadata:\n",
      "        title           : Chapter 36\n",
      "    Chapter #0:36: start 41139.420000, end 42122.112000\n",
      "      Metadata:\n",
      "        title           : Chapter 37\n",
      "    Chapter #0:37: start 42122.112000, end 43153.519000\n",
      "      Metadata:\n",
      "        title           : Chapter 38\n",
      "    Chapter #0:38: start 43153.519000, end 44323.410000\n",
      "      Metadata:\n",
      "        title           : Chapter 39\n",
      "    Chapter #0:39: start 44323.410000, end 45241.039000\n",
      "      Metadata:\n",
      "        title           : Chapter 40\n",
      "    Chapter #0:40: start 45241.039000, end 46333.910000\n",
      "      Metadata:\n",
      "        title           : Chapter 41\n",
      "    Chapter #0:41: start 46333.910000, end 47407.206000\n",
      "      Metadata:\n",
      "        title           : Chapter 42\n",
      "    Chapter #0:42: start 47407.206000, end 48205.833000\n",
      "      Metadata:\n",
      "        title           : Chapter 43\n",
      "    Chapter #0:43: start 48205.833000, end 49372.775000\n",
      "      Metadata:\n",
      "        title           : Chapter 44\n",
      "    Chapter #0:44: start 49372.775000, end 50459.051000\n",
      "      Metadata:\n",
      "        title           : Chapter 45\n",
      "    Chapter #0:45: start 50459.051000, end 51414.296000\n",
      "      Metadata:\n",
      "        title           : Chapter 46\n",
      "    Chapter #0:46: start 51414.296000, end 52660.070000\n",
      "      Metadata:\n",
      "        title           : Chapter 47\n",
      "    Chapter #0:47: start 52660.070000, end 54098.198000\n",
      "      Metadata:\n",
      "        title           : Chapter 48\n",
      "    Chapter #0:48: start 54098.198000, end 55342.556000\n",
      "      Metadata:\n",
      "        title           : Chapter 49\n",
      "    Chapter #0:49: start 55342.556000, end 56506.641000\n",
      "      Metadata:\n",
      "        title           : Chapter 50\n",
      "  Stream #0:0[0x1](eng): Audio: aac (LC) (mp4a / 0x6134706D), 44100 Hz, mono, fltp, 82 kb/s (default)\n",
      "    Metadata:\n",
      "      handler_name    : ISO Media file produced by Google Inc.\n",
      "  Stream #0:1[0x2](eng): Data: bin_data (text / 0x74786574)\n",
      "    Metadata:\n",
      "      handler_name    : SubtitleHandler\n",
      "Input #1, image2, from 'D:\\Downloads\\Harry Potter - Oh God Not Again! FanFiction Patronus Pages AudioBook\\cover_thumbnail.jpg':\n",
      "  Duration: 00:00:00.04, start: 0.000000, bitrate: 9204 kb/s\n",
      "  Stream #1:0: Video: mjpeg (Baseline), yuvj420p(pc, bt470bg/unknown/unknown), 480x480 [SAR 1:1 DAR 1:1], 25 fps, 25 tbr, 25 tbn\n",
      "[vost#0:1 @ 000001507e7e7c40] Multiple -codec/-c/-acodec/-vcodec/-scodec/-dcodec options specified for stream 1, only the last option '-codec:v mjpeg' will be used.\n",
      "Stream mapping:\n",
      "  Stream #0:0 -> #0:0 (copy)\n",
      "  Stream #1:0 -> #0:1 (mjpeg (native) -> mjpeg (native))\n",
      "Press [q] to stop, [?] for help\n",
      "Output #0, ipod, to 'D:\\Downloads\\Harry Potter - Oh God Not Again! FanFiction Patronus Pages AudioBook\\Oh_God_Not_Again_Harry_Potter_FanFic.m4b':\n",
      "  Metadata:\n",
      "    major_brand     : M4A \n",
      "    minor_version   : 512\n",
      "    compatible_brands: M4A isomiso2\n",
      "    title           : Oh God Not Again! Harry Potter FanFic\n",
      "    artist          : Sarah1281\n",
      "    album_artist    : Patronus Pages\n",
      "    album           : Oh God Not Again! Harry Potter FanFic Audiobook\n",
      "    date            : 2008\n",
      "    genre           : Audiobook\n",
      "    comment         : Patronus Pages YT audiobook: https://www.youtube.com/playlist?list=PLba8WLPdVZSrCgji3KUyDuHpYI3mVruZD based on Harry Potter FanFic: https://www.fanfiction.net/s/4536005/2/Oh-God-Not-Again\n",
      "    encoder         : Lavf62.6.103\n",
      "  Chapters:\n",
      "    Chapter #0:0: start 0.000000, end 1257.174000\n",
      "      Metadata:\n",
      "        title           : Chapter 1\n",
      "    Chapter #0:1: start 1257.174000, end 2699.133000\n",
      "      Metadata:\n",
      "        title           : Chapter 2\n",
      "    Chapter #0:2: start 2699.133000, end 3934.621000\n",
      "      Metadata:\n",
      "        title           : Chapter 3\n",
      "    Chapter #0:3: start 3934.621000, end 5057.073000\n",
      "      Metadata:\n",
      "        title           : Chapter 4\n",
      "    Chapter #0:4: start 5057.073000, end 6225.827000\n",
      "      Metadata:\n",
      "        title           : Chapter 5\n",
      "    Chapter #0:5: start 6225.827000, end 7288.650000\n",
      "      Metadata:\n",
      "        title           : Chapter 6\n",
      "    Chapter #0:6: start 7288.650000, end 8272.294000\n",
      "      Metadata:\n",
      "        title           : Chapter 7\n",
      "    Chapter #0:7: start 8272.294000, end 9363.260000\n",
      "      Metadata:\n",
      "        title           : Chapter 8\n",
      "    Chapter #0:8: start 9363.260000, end 10587.207000\n",
      "      Metadata:\n",
      "        title           : Chapter 9\n",
      "    Chapter #0:9: start 10587.207000, end 12031.558000\n",
      "      Metadata:\n",
      "        title           : Chapter 10\n",
      "    Chapter #0:10: start 12031.558000, end 13032.872000\n",
      "      Metadata:\n",
      "        title           : Chapter 11\n",
      "    Chapter #0:11: start 13032.872000, end 14086.803000\n",
      "      Metadata:\n",
      "        title           : Chapter 12\n",
      "    Chapter #0:12: start 14086.803000, end 15120.277000\n",
      "      Metadata:\n",
      "        title           : Chapter 13\n",
      "    Chapter #0:13: start 15120.277000, end 16218.952000\n",
      "      Metadata:\n",
      "        title           : Chapter 14\n",
      "    Chapter #0:14: start 16218.952000, end 17389.354000\n",
      "      Metadata:\n",
      "        title           : Chapter 15\n",
      "    Chapter #0:15: start 17389.354000, end 18339.538000\n",
      "      Metadata:\n",
      "        title           : Chapter 16\n",
      "    Chapter #0:16: start 18339.538000, end 19513.608000\n",
      "      Metadata:\n",
      "        title           : Chapter 17\n",
      "    Chapter #0:17: start 19513.608000, end 20617.346000\n",
      "      Metadata:\n",
      "        title           : Chapter 18\n",
      "    Chapter #0:18: start 20617.346000, end 21780.990000\n",
      "      Metadata:\n",
      "        title           : Chapter 19\n",
      "    Chapter #0:19: start 21780.990000, end 22865.339000\n",
      "      Metadata:\n",
      "        title           : Chapter 20\n",
      "    Chapter #0:20: start 22865.339000, end 23953.217000\n",
      "      Metadata:\n",
      "        title           : Chapter 21\n",
      "    Chapter #0:21: start 23953.217000, end 25089.114000\n",
      "      Metadata:\n",
      "        title           : Chapter 22\n",
      "    Chapter #0:22: start 25089.114000, end 26231.745000\n",
      "      Metadata:\n",
      "        title           : Chapter 23\n",
      "    Chapter #0:23: start 26231.745000, end 27347.022000\n",
      "      Metadata:\n",
      "        title           : Chapter 24\n",
      "    Chapter #0:24: start 27347.022000, end 28834.864000\n",
      "      Metadata:\n",
      "        title           : Chapter 25\n",
      "    Chapter #0:25: start 28834.864000, end 30002.340000\n",
      "      Metadata:\n",
      "        title           : Chapter 26\n",
      "    Chapter #0:26: start 30002.340000, end 30993.740000\n",
      "      Metadata:\n",
      "        title           : Chapter 27\n",
      "    Chapter #0:27: start 30993.740000, end 32270.117000\n",
      "      Metadata:\n",
      "        title           : Chapter 28\n",
      "    Chapter #0:28: start 32270.117000, end 33627.672000\n",
      "      Metadata:\n",
      "        title           : Chapter 29\n",
      "    Chapter #0:29: start 33627.672000, end 34795.264000\n",
      "      Metadata:\n",
      "        title           : Chapter 30\n",
      "    Chapter #0:30: start 34795.264000, end 35627.839000\n",
      "      Metadata:\n",
      "        title           : Chapter 31\n",
      "    Chapter #0:31: start 35627.839000, end 36687.226000\n",
      "      Metadata:\n",
      "        title           : Chapter 32\n",
      "    Chapter #0:32: start 36687.226000, end 37631.164000\n",
      "      Metadata:\n",
      "        title           : Chapter 33\n",
      "    Chapter #0:33: start 37631.164000, end 38705.551000\n",
      "      Metadata:\n",
      "        title           : Chapter 34\n",
      "    Chapter #0:34: start 38705.551000, end 40053.191000\n",
      "      Metadata:\n",
      "        title           : Chapter 35\n",
      "    Chapter #0:35: start 40053.191000, end 41139.420000\n",
      "      Metadata:\n",
      "        title           : Chapter 36\n",
      "    Chapter #0:36: start 41139.420000, end 42122.112000\n",
      "      Metadata:\n",
      "        title           : Chapter 37\n",
      "    Chapter #0:37: start 42122.112000, end 43153.519000\n",
      "      Metadata:\n",
      "        title           : Chapter 38\n",
      "    Chapter #0:38: start 43153.519000, end 44323.410000\n",
      "      Metadata:\n",
      "        title           : Chapter 39\n",
      "    Chapter #0:39: start 44323.410000, end 45241.039000\n",
      "      Metadata:\n",
      "        title           : Chapter 40\n",
      "    Chapter #0:40: start 45241.039000, end 46333.910000\n",
      "      Metadata:\n",
      "        title           : Chapter 41\n",
      "    Chapter #0:41: start 46333.910000, end 47407.206000\n",
      "      Metadata:\n",
      "        title           : Chapter 42\n",
      "    Chapter #0:42: start 47407.206000, end 48205.833000\n",
      "      Metadata:\n",
      "        title           : Chapter 43\n",
      "    Chapter #0:43: start 48205.833000, end 49372.775000\n",
      "      Metadata:\n",
      "        title           : Chapter 44\n",
      "    Chapter #0:44: start 49372.775000, end 50459.051000\n",
      "      Metadata:\n",
      "        title           : Chapter 45\n",
      "    Chapter #0:45: start 50459.051000, end 51414.296000\n",
      "      Metadata:\n",
      "        title           : Chapter 46\n",
      "    Chapter #0:46: start 51414.296000, end 52660.070000\n",
      "      Metadata:\n",
      "        title           : Chapter 47\n",
      "    Chapter #0:47: start 52660.070000, end 54098.198000\n",
      "      Metadata:\n",
      "        title           : Chapter 48\n",
      "    Chapter #0:48: start 54098.198000, end 55342.556000\n",
      "      Metadata:\n",
      "        title           : Chapter 49\n",
      "    Chapter #0:49: start 55342.556000, end 56506.641000\n",
      "      Metadata:\n",
      "        title           : Chapter 50\n",
      "  Stream #0:0(eng): Audio: aac (LC) (mp4a / 0x6134706D), 44100 Hz, mono, fltp, 82 kb/s (default)\n",
      "    Metadata:\n",
      "      handler_name    : ISO Media file produced by Google Inc.\n",
      "  Stream #0:1: Video: mjpeg, yuvj420p(pc, bt470bg/unknown/unknown, progressive), 480x480 [SAR 1:1 DAR 1:1], q=2-31, 200 kb/s, 25 fps, 12800 tbn (attached pic)\n",
      "    Metadata:\n",
      "      encoder         : Lavc62.22.101 mjpeg\n",
      "    Side data:\n",
      "      CPB properties: bitrate max/min/avg: 0/0/200000 buffer size: 0 vbv_delay: N/A\n",
      "frame=    1 fps=0.0 q=6.9 size=   34817KiB time=00:58:01.66 bitrate=  81.9kbits/s speed=6.83e+03x elapsed=0:00:00.50    \n",
      "frame=    1 fps=1.0 q=6.9 size=   56833KiB time=01:34:05.79 bitrate=  82.5kbits/s speed=5.44e+03x elapsed=0:00:01.03    \n",
      "frame=    1 fps=0.6 q=6.9 size=   75009KiB time=02:04:12.46 bitrate=  82.5kbits/s speed=4.82e+03x elapsed=0:00:01.54    \n",
      "frame=    1 fps=0.5 q=6.9 size=   89089KiB time=02:27:20.37 bitrate=  82.6kbits/s speed=4.27e+03x elapsed=0:00:02.06    \n",
      "frame=    1 fps=0.4 q=6.9 size=  102401KiB time=02:49:30.27 bitrate=  82.5kbits/s speed=3.94e+03x elapsed=0:00:02.57    \n",
      "frame=    1 fps=0.3 q=6.9 size=  114177KiB time=03:08:48.15 bitrate=  82.6kbits/s speed=3.65e+03x elapsed=0:00:03.10    \n",
      "frame=    1 fps=0.3 q=6.9 size=  125441KiB time=03:27:25.68 bitrate=  82.6kbits/s speed=3.45e+03x elapsed=0:00:03.60    \n",
      "frame=    1 fps=0.2 q=6.9 size=  134913KiB time=03:43:16.77 bitrate=  82.5kbits/s speed=3.25e+03x elapsed=0:00:04.11    \n",
      "frame=    1 fps=0.2 q=6.9 size=  145153KiB time=03:59:55.41 bitrate=  82.6kbits/s speed=3.1e+03x elapsed=0:00:04.64    \n",
      "frame=    1 fps=0.2 q=6.9 size=  153601KiB time=04:14:11.40 bitrate=  82.5kbits/s speed=2.96e+03x elapsed=0:00:05.15    \n",
      "frame=    1 fps=0.2 q=6.9 size=  163073KiB time=04:29:38.71 bitrate=  82.6kbits/s speed=2.85e+03x elapsed=0:00:05.67    \n",
      "frame=    1 fps=0.2 q=6.9 size=  171009KiB time=04:42:43.36 bitrate=  82.6kbits/s speed=2.74e+03x elapsed=0:00:06.18    \n",
      "frame=    1 fps=0.1 q=6.9 size=  178945KiB time=04:55:48.00 bitrate=  82.6kbits/s speed=2.65e+03x elapsed=0:00:06.70    \n",
      "frame=    1 fps=0.1 q=6.9 size=  186625KiB time=05:08:36.86 bitrate=  82.6kbits/s speed=2.56e+03x elapsed=0:00:07.22    \n",
      "frame=    1 fps=0.1 q=6.9 size=  194049KiB time=05:20:45.97 bitrate=  82.6kbits/s speed=2.49e+03x elapsed=0:00:07.73    \n",
      "frame=    1 fps=0.1 q=6.9 size=  200961KiB time=05:32:15.51 bitrate=  82.6kbits/s speed=2.42e+03x elapsed=0:00:08.24    \n",
      "frame=    1 fps=0.1 q=6.9 size=  208129KiB time=05:44:08.83 bitrate=  82.6kbits/s speed=2.35e+03x elapsed=0:00:08.77    \n",
      "frame=    1 fps=0.1 q=6.9 size=  214529KiB time=05:54:50.81 bitrate=  82.5kbits/s speed=2.29e+03x elapsed=0:00:09.28    \n",
      "frame=    1 fps=0.1 q=6.9 size=  221441KiB time=06:05:56.58 bitrate=  82.6kbits/s speed=2.24e+03x elapsed=0:00:09.79    \n",
      "frame=    1 fps=0.1 q=6.9 size=  227841KiB time=06:16:38.56 bitrate=  82.6kbits/s speed=2.19e+03x elapsed=0:00:10.31    \n",
      "frame=    1 fps=0.1 q=6.9 size=  233729KiB time=06:26:32.99 bitrate=  82.6kbits/s speed=2.14e+03x elapsed=0:00:10.82    \n",
      "frame=    1 fps=0.1 q=6.9 size=  240385KiB time=06:37:14.98 bitrate=  82.6kbits/s speed=2.1e+03x elapsed=0:00:11.33    \n",
      "frame=    1 fps=0.1 q=6.9 size=  246017KiB time=06:46:45.63 bitrate=  82.6kbits/s speed=2.06e+03x elapsed=0:00:11.86    \n",
      "frame=    1 fps=0.1 q=6.9 size=  252161KiB time=06:56:40.06 bitrate=  82.6kbits/s speed=2.02e+03x elapsed=0:00:12.37    \n",
      "frame=    1 fps=0.1 q=6.9 size=  257537KiB time=07:05:46.94 bitrate=  82.6kbits/s speed=1.98e+03x elapsed=0:00:12.88    \n",
      "frame=    1 fps=0.1 q=6.9 size=  263681KiB time=07:15:41.37 bitrate=  82.6kbits/s speed=1.95e+03x elapsed=0:00:13.40    \n",
      "frame=    1 fps=0.1 q=6.9 size=  268801KiB time=07:24:24.47 bitrate=  82.6kbits/s speed=1.92e+03x elapsed=0:00:13.91    \n",
      "frame=    1 fps=0.1 q=6.9 size=  274689KiB time=07:33:55.12 bitrate=  82.6kbits/s speed=1.89e+03x elapsed=0:00:14.43    \n",
      "frame=    1 fps=0.1 q=6.9 size=  279553KiB time=07:42:14.44 bitrate=  82.6kbits/s speed=1.86e+03x elapsed=0:00:14.94    \n",
      "frame=    1 fps=0.1 q=6.9 size=  285185KiB time=07:51:21.32 bitrate=  82.6kbits/s speed=1.83e+03x elapsed=0:00:15.47    \n",
      "frame=    1 fps=0.1 q=6.9 size=  290049KiB time=07:59:16.86 bitrate=  82.6kbits/s speed=1.8e+03x elapsed=0:00:15.98    \n",
      "frame=    1 fps=0.1 q=6.9 size=  295169KiB time=08:07:59.96 bitrate=  82.6kbits/s speed=1.77e+03x elapsed=0:00:16.50    \n",
      "frame=    1 fps=0.1 q=6.9 size=  299777KiB time=08:15:31.73 bitrate=  82.6kbits/s speed=1.75e+03x elapsed=0:00:17.01    \n",
      "frame=    1 fps=0.1 q=6.9 size=  305153KiB time=08:24:14.83 bitrate=  82.6kbits/s speed=1.73e+03x elapsed=0:00:17.53    \n",
      "frame=    1 fps=0.1 q=6.9 size=  309505KiB time=08:31:22.82 bitrate=  82.6kbits/s speed=1.7e+03x elapsed=0:00:18.04    \n",
      "frame=    1 fps=0.1 q=6.9 size=  314369KiB time=08:39:43.95 bitrate=  82.6kbits/s speed=1.68e+03x elapsed=0:00:18.56    \n",
      "frame=    1 fps=0.1 q=6.9 size=  318721KiB time=08:46:50.13 bitrate=  82.6kbits/s speed=1.66e+03x elapsed=0:00:19.07    \n",
      "frame=    1 fps=0.1 q=6.9 size=  323585KiB time=08:55:09.45 bitrate=  82.6kbits/s speed=1.64e+03x elapsed=0:00:19.59    \n",
      "frame=    1 fps=0.0 q=6.9 size=  327937KiB time=09:02:17.44 bitrate=  82.6kbits/s speed=1.62e+03x elapsed=0:00:20.10    \n",
      "frame=    1 fps=0.0 q=6.9 size=  332801KiB time=09:10:12.99 bitrate=  82.6kbits/s speed=1.6e+03x elapsed=0:00:20.62    \n",
      "frame=    1 fps=0.0 q=6.9 size=  336897KiB time=09:17:08.07 bitrate=  82.6kbits/s speed=1.58e+03x elapsed=0:00:21.13    \n",
      "frame=    1 fps=0.0 q=6.9 size=  341505KiB time=09:24:28.97 bitrate=  82.6kbits/s speed=1.56e+03x elapsed=0:00:21.64    \n",
      "frame=    1 fps=0.0 q=6.9 size=  345601KiB time=09:31:13.18 bitrate=  82.6kbits/s speed=1.55e+03x elapsed=0:00:22.17    \n",
      "frame=    1 fps=0.0 q=6.9 size=  349697KiB time=09:38:21.17 bitrate=  82.6kbits/s speed=1.53e+03x elapsed=0:00:22.69    \n",
      "frame=    1 fps=0.0 q=6.9 size=  354049KiB time=09:45:29.16 bitrate=  82.6kbits/s speed=1.51e+03x elapsed=0:00:23.20    \n",
      "frame=    1 fps=0.0 q=6.9 size=  358145KiB time=09:52:13.38 bitrate=  82.6kbits/s speed=1.5e+03x elapsed=0:00:23.72    \n",
      "frame=    1 fps=0.0 q=6.9 size=  362241KiB time=09:58:57.59 bitrate=  82.6kbits/s speed=1.48e+03x elapsed=0:00:24.23    \n",
      "frame=    1 fps=0.0 q=6.9 size=  366337KiB time=10:05:41.80 bitrate=  82.6kbits/s speed=1.47e+03x elapsed=0:00:24.75    \n",
      "frame=    1 fps=0.0 q=6.9 size=  370689KiB time=10:12:49.79 bitrate=  82.6kbits/s speed=1.46e+03x elapsed=0:00:25.26    \n",
      "frame=    1 fps=0.0 q=6.9 size=  374273KiB time=10:18:46.45 bitrate=  82.6kbits/s speed=1.44e+03x elapsed=0:00:25.78    \n",
      "frame=    1 fps=0.0 q=6.9 size=  378369KiB time=10:25:30.66 bitrate=  82.6kbits/s speed=1.43e+03x elapsed=0:00:26.30    \n",
      "frame=    1 fps=0.0 q=6.9 size=  381953KiB time=10:31:27.32 bitrate=  82.6kbits/s speed=1.41e+03x elapsed=0:00:26.81    \n",
      "frame=    1 fps=0.0 q=6.9 size=  386305KiB time=10:38:35.31 bitrate=  82.6kbits/s speed=1.4e+03x elapsed=0:00:27.33    \n",
      "frame=    1 fps=0.0 q=6.9 size=  389889KiB time=10:44:31.97 bitrate=  82.6kbits/s speed=1.39e+03x elapsed=0:00:27.84    \n",
      "frame=    1 fps=0.0 q=6.9 size=  393985KiB time=10:51:16.18 bitrate=  82.6kbits/s speed=1.38e+03x elapsed=0:00:28.36    \n",
      "frame=    1 fps=0.0 q=6.9 size=  397313KiB time=10:56:49.06 bitrate=  82.6kbits/s speed=1.36e+03x elapsed=0:00:28.87    \n",
      "frame=    1 fps=0.0 q=6.9 size=  401153KiB time=11:03:09.50 bitrate=  82.6kbits/s speed=1.35e+03x elapsed=0:00:29.38    \n",
      "frame=    1 fps=0.0 q=6.9 size=  404481KiB time=11:08:42.38 bitrate=  82.6kbits/s speed=1.34e+03x elapsed=0:00:29.90    \n",
      "frame=    1 fps=0.0 q=6.9 size=  408577KiB time=11:15:26.59 bitrate=  82.6kbits/s speed=1.33e+03x elapsed=0:00:30.41    \n",
      "frame=    1 fps=0.0 q=6.9 size=  411905KiB time=11:20:59.48 bitrate=  82.6kbits/s speed=1.32e+03x elapsed=0:00:30.93    \n",
      "frame=    1 fps=0.0 q=6.9 size=  415745KiB time=11:27:24.72 bitrate=  82.6kbits/s speed=1.31e+03x elapsed=0:00:31.44    \n",
      "frame=    1 fps=0.0 q=6.9 size=  419073KiB time=11:32:52.79 bitrate=  82.6kbits/s speed=1.3e+03x elapsed=0:00:31.96    \n",
      "frame=    1 fps=0.0 q=6.9 size=  423169KiB time=11:39:18.06 bitrate=  82.6kbits/s speed=1.29e+03x elapsed=0:00:32.48    \n",
      "frame=    1 fps=0.0 q=6.9 size=  426241KiB time=11:44:46.11 bitrate=  82.6kbits/s speed=1.28e+03x elapsed=0:00:32.99    \n",
      "frame=    1 fps=0.0 q=6.9 size=  430081KiB time=11:51:06.55 bitrate=  82.6kbits/s speed=1.27e+03x elapsed=0:00:33.52    \n",
      "frame=    1 fps=0.0 q=6.9 size=  433409KiB time=11:56:15.65 bitrate=  82.6kbits/s speed=1.26e+03x elapsed=0:00:34.03    \n",
      "frame=    1 fps=0.0 q=6.9 size=  437249KiB time=12:02:36.09 bitrate=  82.6kbits/s speed=1.25e+03x elapsed=0:00:34.55    \n",
      "frame=    1 fps=0.0 q=6.9 size=  440321KiB time=12:07:45.19 bitrate=  82.6kbits/s speed=1.25e+03x elapsed=0:00:35.06    \n",
      "frame=    1 fps=0.0 q=6.9 size=  444161KiB time=12:14:05.63 bitrate=  82.6kbits/s speed=1.24e+03x elapsed=0:00:35.58    \n",
      "frame=    1 fps=0.0 q=6.9 size=  446977KiB time=12:18:51.81 bitrate=  82.6kbits/s speed=1.23e+03x elapsed=0:00:36.09    \n",
      "frame=    1 fps=0.0 q=6.9 size=  450561KiB time=12:24:47.61 bitrate=  82.6kbits/s speed=1.22e+03x elapsed=0:00:36.61    \n",
      "frame=    1 fps=0.0 q=6.9 size=  453633KiB time=12:29:56.71 bitrate=  82.6kbits/s speed=1.21e+03x elapsed=0:00:37.12    \n",
      "frame=    1 fps=0.0 q=6.9 size=  456961KiB time=12:35:29.60 bitrate=  82.6kbits/s speed=1.2e+03x elapsed=0:00:37.63    \n",
      "frame=    1 fps=0.0 q=6.9 size=  460289KiB time=12:41:02.48 bitrate=  82.6kbits/s speed=1.2e+03x elapsed=0:00:38.15    \n",
      "frame=    1 fps=0.0 q=6.9 size=  463617KiB time=12:46:15.44 bitrate=  82.6kbits/s speed=1.19e+03x elapsed=0:00:38.66    \n",
      "frame=    1 fps=0.0 q=6.9 size=  466689KiB time=12:51:44.46 bitrate=  82.6kbits/s speed=1.18e+03x elapsed=0:00:39.19    \n",
      "frame=    1 fps=0.0 q=6.9 size=  470017KiB time=12:56:53.57 bitrate=  82.6kbits/s speed=1.17e+03x elapsed=0:00:39.70    \n",
      "frame=    1 fps=0.0 q=6.9 size=  473345KiB time=13:02:26.45 bitrate=  82.6kbits/s speed=1.17e+03x elapsed=0:00:40.22    \n",
      "frame=    1 fps=0.0 q=6.9 size=  475649KiB time=13:06:24.22 bitrate=  82.6kbits/s speed=1.16e+03x elapsed=0:00:40.73    \n",
      "frame=    1 fps=0.0 q=6.9 size=  478465KiB time=13:11:09.55 bitrate=  82.6kbits/s speed=1.15e+03x elapsed=0:00:41.25    \n",
      "frame=    1 fps=0.0 q=6.9 size=  481281KiB time=13:15:54.87 bitrate=  82.6kbits/s speed=1.14e+03x elapsed=0:00:41.76    \n",
      "frame=    1 fps=0.0 q=6.9 size=  484609KiB time=13:21:03.98 bitrate=  82.6kbits/s speed=1.14e+03x elapsed=0:00:42.28    \n",
      "frame=    1 fps=0.0 q=6.9 size=  487425KiB time=13:25:49.30 bitrate=  82.6kbits/s speed=1.13e+03x elapsed=0:00:42.80    \n",
      "frame=    1 fps=0.0 q=6.9 size=  490753KiB time=13:31:19.52 bitrate=  82.6kbits/s speed=1.12e+03x elapsed=0:00:43.32    \n",
      "frame=    1 fps=0.0 q=6.9 size=  493313KiB time=13:35:43.74 bitrate=  82.6kbits/s speed=1.12e+03x elapsed=0:00:43.83    \n",
      "frame=    1 fps=0.0 q=6.9 size=  496641KiB time=13:41:16.62 bitrate=  82.6kbits/s speed=1.11e+03x elapsed=0:00:44.36    \n",
      "frame=    1 fps=0.0 q=6.9 size=  499457KiB time=13:46:01.94 bitrate=  82.6kbits/s speed=1.1e+03x elapsed=0:00:44.87    \n",
      "frame=    1 fps=0.0 q=6.9 size=  502785KiB time=13:51:34.82 bitrate=  82.5kbits/s speed=1.1e+03x elapsed=0:00:45.39    \n",
      "frame=    1 fps=0.0 q=6.9 size=  505601KiB time=13:55:56.37 bitrate=  82.6kbits/s speed=1.09e+03x elapsed=0:00:45.90    \n",
      "frame=    1 fps=0.0 q=6.9 size=  508929KiB time=14:01:29.26 bitrate=  82.6kbits/s speed=1.09e+03x elapsed=0:00:46.42    \n",
      "frame=    1 fps=0.0 q=6.9 size=  511489KiB time=14:05:50.80 bitrate=  82.6kbits/s speed=1.08e+03x elapsed=0:00:46.93    \n",
      "frame=    1 fps=0.0 q=6.9 size=  514817KiB time=14:11:23.69 bitrate=  82.6kbits/s speed=1.08e+03x elapsed=0:00:47.45    \n",
      "frame=    1 fps=0.0 q=6.9 size=  517633KiB time=14:15:45.24 bitrate=  82.6kbits/s speed=1.07e+03x elapsed=0:00:47.96    \n",
      "frame=    1 fps=0.0 q=6.9 size=  520705KiB time=14:20:56.94 bitrate=  82.6kbits/s speed=1.07e+03x elapsed=0:00:48.48    \n",
      "frame=    1 fps=0.0 q=6.9 size=  523265KiB time=14:25:15.89 bitrate=  82.6kbits/s speed=1.06e+03x elapsed=0:00:48.99    \n",
      "frame=    1 fps=0.0 q=6.9 size=  526337KiB time=14:30:24.99 bitrate=  82.6kbits/s speed=1.05e+03x elapsed=0:00:49.51    \n",
      "frame=    1 fps=0.0 q=6.9 size=  528897KiB time=14:34:46.54 bitrate=  82.5kbits/s speed=1.05e+03x elapsed=0:00:50.02    \n",
      "frame=    1 fps=0.0 q=6.9 size=  531969KiB time=14:39:31.87 bitrate=  82.6kbits/s speed=1.04e+03x elapsed=0:00:50.55    \n",
      "frame=    1 fps=0.0 q=6.9 size=  534529KiB time=14:43:53.42 bitrate=  82.6kbits/s speed=1.04e+03x elapsed=0:00:51.05    \n",
      "frame=    1 fps=0.0 q=6.9 size=  537601KiB time=14:49:02.52 bitrate=  82.6kbits/s speed=1.03e+03x elapsed=0:00:51.58    \n",
      "frame=    1 fps=0.0 q=6.9 size=  540161KiB time=14:53:24.07 bitrate=  82.5kbits/s speed=1.03e+03x elapsed=0:00:52.09    \n",
      "frame=    1 fps=0.0 q=6.9 size=  543233KiB time=14:58:09.40 bitrate=  82.6kbits/s speed=1.02e+03x elapsed=0:00:52.61    \n",
      "frame=    1 fps=0.0 q=6.9 size=  545793KiB time=15:02:30.95 bitrate=  82.6kbits/s speed=1.02e+03x elapsed=0:00:53.12    \n",
      "frame=    1 fps=0.0 q=6.9 size=  548609KiB time=15:07:16.28 bitrate=  82.6kbits/s speed=1.01e+03x elapsed=0:00:53.64    \n",
      "frame=    1 fps=0.0 q=6.9 size=  551425KiB time=15:11:37.83 bitrate=  82.6kbits/s speed=1.01e+03x elapsed=0:00:54.15    \n",
      "frame=    1 fps=0.0 q=6.9 size=  554241KiB time=15:16:23.15 bitrate=  82.6kbits/s speed=1.01e+03x elapsed=0:00:54.67    \n",
      "frame=    1 fps=0.0 q=6.9 size=  556801KiB time=15:20:44.70 bitrate=  82.6kbits/s speed=1e+03x elapsed=0:00:55.18    \n",
      "frame=    1 fps=0.0 q=6.9 size=  559617KiB time=15:25:30.03 bitrate=  82.6kbits/s speed= 997x elapsed=0:00:55.70    \n",
      "frame=    1 fps=0.0 q=6.9 size=  562433KiB time=15:29:51.58 bitrate=  82.6kbits/s speed= 992x elapsed=0:00:56.21    \n",
      "frame=    1 fps=0.0 q=6.9 size=  564993KiB time=15:34:13.13 bitrate=  82.6kbits/s speed= 988x elapsed=0:00:56.74    \n",
      "frame=    1 fps=0.0 q=6.9 size=  567553KiB time=15:38:34.68 bitrate=  82.6kbits/s speed= 984x elapsed=0:00:57.24    \n",
      "[out#0/ipod @ 0000015078702640] video:20KiB audio:569776KiB subtitle:0KiB other streams:0KiB global headers:0KiB muxing overhead: 1.670625%\n",
      "frame=    1 fps=0.0 q=6.9 Lsize=  579315KiB time=00:00:00.04 bitrate=118643671.6kbits/s speed=0.000693x elapsed=0:00:57.72    \n",
      "\n",
      "\n",
      "Return code: 0\n"
     ]
    }
   ],
   "source": [
    "#Add embeded cover\n",
    "\n",
    "import subprocess\n",
    "from pathlib import Path\n",
    "\n",
    "folder = MP3_FOLDER\n",
    "\n",
    "INPUT_M4B  = \"_Oh_God_Not_Again_Harry_Potter_FanFic_no_cover.m4b\"\n",
    "COVER_IMG  = folder / \"cover_thumbnail.jpg\"    # or .png\n",
    "OUTPUT_M4B = folder / \"Oh_God_Not_Again_Harry_Potter_FanFic.m4b\"\n",
    "\n",
    "print(\"Input m4b: \", INPUT_M4B)\n",
    "print(\"Cover:     \", COVER_IMG)\n",
    "print(\"Output m4b:\", OUTPUT_M4B)\n",
    "\n",
    "if not COVER_IMG.exists():\n",
    "    raise SystemExit(f\"Cover image not found: {COVER_IMG}\")\n",
    "\n",
    "cmd = [\n",
    "    FFMPEG_BIN, \"-y\",\n",
    "    \"-i\", str(INPUT_M4B),      # 0: audio+chapters\n",
    "    \"-i\", str(COVER_IMG),      # 1: cover\n",
    "    \"-map\", \"0:a\",             # audio\n",
    "    \"-map\", \"0:t?\",            # existing chapters/metadata\n",
    "    \"-map\", \"1:v\",             # cover image\n",
    "    \"-c\", \"copy\",\n",
    "    \"-c:v\", \"mjpeg\" if COVER_IMG.suffix.lower() in [\".jpg\", \".jpeg\"] else \"png\",\n",
    "    \"-disposition:v:0\", \"attached_pic\",\n",
    "    str(OUTPUT_M4B),\n",
    "]\n",
    "\n",
    "print(\"Running:\", \" \".join(cmd))\n",
    "result = subprocess.run(cmd, text=True, capture_output=True)\n",
    "print(\"\\n=== FFmpeg stdout ===\\n\", result.stdout)\n",
    "print(\"\\n=== FFmpeg stderr ===\\n\", result.stderr)\n",
    "print(\"\\nReturn code:\", result.returncode)\n"
   ]
  },
  {
   "cell_type": "code",
   "execution_count": null,
   "id": "1083021b",
   "metadata": {},
   "outputs": [],
   "source": [
    "#Inspect any .m4b fole for stats\n",
    "\n",
    "FFPROBE_BIN = r\"D:\\projects\\mp3tom4b_audiobook\\ffmpeg-2025-12-10-git-4f947880bd-essentials_build\\bin\\ffprobe.exe\"\n",
    "FILE = Path(r\"./The Black Prism.m4b\")\n",
    "\n",
    "result = subprocess.run([\n",
    "    FFPROBE_BIN,\n",
    "    \"-v\", \"error\",\n",
    "    \"-show_entries\", \"format=duration,bit_rate\",\n",
    "    \"-show_entries\", \"stream=index,codec_name,codec_type,channels,sample_rate\",\n",
    "    \"-of\", \"json\",\n",
    "    str(FILE)\n",
    "], text=True, capture_output=True)\n",
    "\n",
    "print(result.stdout)"
   ]
  },
  {
   "cell_type": "code",
   "execution_count": null,
   "id": "a2022b53",
   "metadata": {},
   "outputs": [],
   "source": []
  }
 ],
 "metadata": {
  "kernelspec": {
   "display_name": "base",
   "language": "python",
   "name": "python3"
  },
  "language_info": {
   "codemirror_mode": {
    "name": "ipython",
    "version": 3
   },
   "file_extension": ".py",
   "mimetype": "text/x-python",
   "name": "python",
   "nbconvert_exporter": "python",
   "pygments_lexer": "ipython3",
   "version": "3.8.18"
  }
 },
 "nbformat": 4,
 "nbformat_minor": 5
}
